<svg xmlns="http://www.w3.org/2000/svg" version="1.1" xmlns:xlink="http://www.w3.org/1999/xlink" xmlns:svgjs="http://svgjs.dev/svgjs" width="2000" height="409" viewBox="0 0 2000 409"><g transform="matrix(1,0,0,1,-1.2121212121212466,-0.37041368470929115)"><svg viewBox="0 0 396 81" data-background-color="#569649" preserveAspectRatio="xMidYMid meet" height="409" width="2000" xmlns="http://www.w3.org/2000/svg" xmlns:xlink="http://www.w3.org/1999/xlink"><defs></defs><g id="tight-bounds" transform="matrix(1,0,0,1,0.2400000000000091,0.07335821139719201)"><svg viewBox="0 0 395.52 80.85328357720562" height="80.85328357720562" width="395.52"><g><svg viewBox="0 0 509.5252414628441 104.15854783004526" height="80.85328357720562" width="395.52"><g transform="matrix(1,0,0,1,114.00524146284415,14.395284106757344)"><svg viewBox="0 0 395.52 75.36797961653058" height="75.36797961653058" width="395.52"><g><svg viewBox="0 0 395.52 75.36797961653058" height="75.36797961653058" width="395.52"><g><svg viewBox="0 0 395.52 41.709846120736046" height="41.709846120736046" width="395.52"><g transform="matrix(1,0,0,1,0,0)"><svg width="395.52" viewBox="2.05 -38.4 466.11 49" height="41.709846120736046" data-palette-color="#ffffff"><g class="undefined-text-0" data-fill-palette-color="primary" id="text-0"><path d="M2.05 0L2.05-3.3 5.55-3.3 5.55-31.6 2.05-31.6 2.05-34.9 21.3-34.9Q26.8-34.9 29.53-32.48 32.25-30.05 32.25-25.35L32.25-25.35Q32.25-20.6 29.3-17.93 26.35-15.25 20.85-15.25L20.85-15.25 13.65-15.25 13.65-3.3 18.4-3.3 18.4 0 2.05 0ZM13.65-31.3L13.65-18.85 18.6-18.85Q21.15-18.85 22.58-20.08 24-21.3 24-23.8L24-23.8 24-26.35Q24-28.85 22.58-30.08 21.15-31.3 18.6-31.3L18.6-31.3 13.65-31.3ZM42.65-29.65L42.65-29.65Q40.55-29.65 39.37-30.8 38.2-31.95 38.2-33.9L38.2-33.9 38.2-34.15Q38.2-36.1 39.37-37.25 40.55-38.4 42.65-38.4L42.65-38.4Q44.75-38.4 45.92-37.25 47.1-36.1 47.1-34.15L47.1-34.15 47.1-33.9Q47.1-31.95 45.92-30.8 44.75-29.65 42.65-29.65ZM35.9 0L35.9-3.3 38.9-3.3 38.9-21.15 35.9-21.8 35.9-24.65 46.5-26.8 46.5-3.3 49.5-3.3 49.5 0 35.9 0ZM51.4 0L51.4-3.3 54.15-3.3 61.05-12.45 53.8-22.9 51.55-22.9 51.55-26.2 65.75-26.2 65.75-22.9 62.75-22.9 67.25-16.4 67.55-16.4 72.2-22.9 69.35-22.9 69.35-26.2 79.3-26.2 79.3-22.9 76.55-22.9 69.6-13.75 77.15-3.3 79.4-3.3 79.4 0 65.05 0 65.05-3.3 68.05-3.3 63.4-9.8 63.1-9.8 58.5-3.3 61.35-3.3 61.35 0 51.4 0ZM94.89 0.6L94.89 0.6Q91.79 0.6 89.42-0.43 87.04-1.45 85.42-3.28 83.79-5.1 82.94-7.63 82.09-10.15 82.09-13.15L82.09-13.15Q82.09-16.3 82.97-18.85 83.84-21.4 85.47-23.15 87.09-24.9 89.37-25.85 91.64-26.8 94.44-26.8L94.44-26.8Q97.24-26.8 99.49-25.95 101.74-25.1 103.32-23.53 104.89-21.95 105.74-19.7 106.59-17.45 106.59-14.7L106.59-14.7 106.59-13 90.14-13 90.14-11Q90.14-7.65 91.89-5.95 93.64-4.25 96.54-4.25L96.54-4.25Q99.24-4.25 100.89-5.48 102.54-6.7 103.24-8.45L103.24-8.45 105.99-6.8Q105.54-5.55 104.69-4.25 103.84-2.95 102.49-1.88 101.14-0.8 99.24-0.1 97.34 0.6 94.89 0.6ZM90.14-16.85L90.14-16.15 98.74-16.15 98.74-16.85Q98.74-20.45 97.59-21.9 96.44-23.35 94.44-23.35L94.44-23.35Q92.44-23.35 91.29-21.9 90.14-20.45 90.14-16.85L90.14-16.85ZM109.84 0L109.84-3.3 112.84-3.3 112.84-32.35 109.84-33 109.84-35.85 120.44-38 120.44-3.3 123.44-3.3 123.44 0 109.84 0ZM137.99 0.6L137.99 0.6Q135.24 0.6 133.79-0.43 132.34-1.45 131.94-2.7L131.94-2.7 131.74-2.7 131.74 0 126.84 0 126.84-7.8 131.74-7.8 131.74-7Q131.74-5.05 132.94-4.05 134.14-3.05 136.84-3.05L136.84-3.05Q139.24-3.05 140.34-3.8 141.44-4.55 141.44-6.1L141.44-6.1Q141.44-7.35 140.64-8.03 139.84-8.7 137.99-9.25L137.99-9.25 135.64-9.9Q131.29-11.1 129.21-13.13 127.14-15.15 127.14-18.6L127.14-18.6Q127.14-22.55 129.74-24.68 132.34-26.8 136.59-26.8L136.59-26.8Q139.24-26.8 140.64-25.8 142.04-24.8 142.44-23.55L142.44-23.55 142.64-23.55 142.64-26.2 147.54-26.2 147.54-18.4 142.64-18.4 142.64-19.3Q142.64-21.2 141.46-22.18 140.29-23.15 137.64-23.15L137.64-23.15Q133.84-23.15 133.84-20.4L133.84-20.4Q133.84-19.1 134.61-18.3 135.39-17.5 137.44-17L137.44-17 139.59-16.45Q141.69-15.9 143.29-15.2 144.89-14.5 145.96-13.53 147.04-12.55 147.59-11.18 148.14-9.8 148.14-7.9L148.14-7.9Q148.14-3.75 145.34-1.58 142.54 0.6 137.99 0.6ZM152.24 0L152.24-3.3 155.74-3.3 155.74-31.6 152.24-31.6 152.24-34.9 171.49-34.9Q176.99-34.9 179.71-32.48 182.44-30.05 182.44-25.35L182.44-25.35Q182.44-20.6 179.49-17.93 176.53-15.25 171.03-15.25L171.03-15.25 163.84-15.25 163.84-3.3 168.59-3.3 168.59 0 152.24 0ZM163.84-31.3L163.84-18.85 168.78-18.85Q171.34-18.85 172.76-20.08 174.19-21.3 174.19-23.8L174.19-23.8 174.19-26.35Q174.19-28.85 172.76-30.08 171.34-31.3 168.78-31.3L168.78-31.3 163.84-31.3ZM185.58 0L185.58-3.3 188.58-3.3 188.58-32.35 185.58-33 185.58-35.85 196.18-38 196.18-22.05 196.53-22.05Q197.23-24.05 199.01-25.43 200.78-26.8 203.73-26.8L203.73-26.8Q208.53-26.8 210.51-24.38 212.48-21.95 212.48-17.1L212.48-17.1 212.48-3.3 215.48-3.3 215.48 0 202.13 0 202.13-3.3 204.88-3.3 204.88-16.85Q204.88-19.5 203.96-20.63 203.03-21.75 200.83-21.75L200.83-21.75Q199.98-21.75 199.16-21.53 198.33-21.3 197.66-20.83 196.98-20.35 196.58-19.63 196.18-18.9 196.18-17.85L196.18-17.85 196.18-3.3 198.93-3.3 198.93 0 185.58 0ZM231.33-3L231.33-3Q235.93-3 235.93-8.5L235.93-8.5 235.93-17.7Q235.93-23.2 231.33-23.2L231.33-23.2Q226.73-23.2 226.73-17.7L226.73-17.7 226.73-8.5Q226.73-3 231.33-3ZM231.33 0.6L231.33 0.6Q228.48 0.6 226.16-0.33 223.83-1.25 222.16-3 220.48-4.75 219.58-7.3 218.68-9.85 218.68-13.1L218.68-13.1Q218.68-16.35 219.58-18.9 220.48-21.45 222.16-23.2 223.83-24.95 226.16-25.88 228.48-26.8 231.33-26.8L231.33-26.8Q234.18-26.8 236.51-25.88 238.83-24.95 240.51-23.2 242.18-21.45 243.08-18.9 243.98-16.35 243.98-13.1L243.98-13.1Q243.98-9.85 243.08-7.3 242.18-4.75 240.51-3 238.83-1.25 236.51-0.33 234.18 0.6 231.33 0.6ZM256.23 0.5L256.23 0.5Q253.23 0.5 251.8-0.83 250.38-2.15 250.38-4.75L250.38-4.75 250.38-22.7 246.88-22.7 246.88-26.2 248.23-26.2Q249.88-26.2 250.65-26.93 251.43-27.65 252.13-29.1L252.13-29.1 254.23-33.45 257.98-33.45 257.98-26.2 263.73-26.2 263.73-22.7 257.98-22.7 257.98-3.4 263.73-3.4 263.73-0.45Q262.93-0.1 260.88 0.2 258.83 0.5 256.23 0.5ZM279.08-3L279.08-3Q283.68-3 283.68-8.5L283.68-8.5 283.68-17.7Q283.68-23.2 279.08-23.2L279.08-23.2Q274.48-23.2 274.48-17.7L274.48-17.7 274.48-8.5Q274.48-3 279.08-3ZM279.08 0.6L279.08 0.6Q276.23 0.6 273.9-0.33 271.58-1.25 269.9-3 268.23-4.75 267.33-7.3 266.43-9.85 266.43-13.1L266.43-13.1Q266.43-16.35 267.33-18.9 268.23-21.45 269.9-23.2 271.58-24.95 273.9-25.88 276.23-26.8 279.08-26.8L279.08-26.8Q281.93-26.8 284.25-25.88 286.58-24.95 288.25-23.2 289.93-21.45 290.83-18.9 291.73-16.35 291.73-13.1L291.73-13.1Q291.73-9.85 290.83-7.3 289.93-4.75 288.25-3 286.58-1.25 284.25-0.33 281.93 0.6 279.08 0.6ZM307.52 10.6L307.52 10.6Q303.82 10.6 301.37 10.2 298.92 9.8 297.45 9.05 295.97 8.3 295.37 7.25 294.77 6.2 294.77 4.85L294.77 4.85Q294.77 2.95 296.4 1.78 298.02 0.6 300.42 0.2L300.42 0.2 300.42 0Q298.67-0.4 297.6-1.68 296.52-2.95 296.52-4.95L296.52-4.95Q296.52-7.25 298.05-8.53 299.57-9.8 301.72-10.3L301.72-10.3 301.72-10.5Q299.17-11.5 297.8-13.4 296.42-15.3 296.42-18.15L296.42-18.15Q296.42-20.25 297.22-21.85 298.02-23.45 299.47-24.55 300.92-25.65 302.97-26.23 305.02-26.8 307.52-26.8L307.52-26.8Q309.32-26.8 310.9-26.5 312.47-26.2 313.92-25.5L313.92-25.5Q314.47-31 318.87-31L318.87-31Q320.32-31 321.3-30.18 322.27-29.35 322.27-27.8L322.27-27.8Q322.27-26.35 321.4-25.48 320.52-24.6 318.92-24.6L318.92-24.6Q317.07-24.6 316.02-25.85L316.02-25.85 315.82-25.85 315.82-24.35Q317.17-23.25 317.95-21.75 318.72-20.25 318.72-18.15L318.72-18.15Q318.72-16.05 317.92-14.45 317.12-12.85 315.65-11.75 314.17-10.65 312.12-10.08 310.07-9.5 307.57-9.5L307.57-9.5Q306.52-9.5 305.57-9.6 304.62-9.7 303.72-9.9L303.72-9.9Q302.32-9 302.32-7.6L302.32-7.6Q302.32-6.55 303.12-6.03 303.92-5.5 305.67-5.5L305.67-5.5 311.47-5.5Q314.17-5.5 316.1-4.98 318.02-4.45 319.22-3.5 320.42-2.55 320.97-1.23 321.52 0.1 321.52 1.75L321.52 1.75Q321.52 5.9 318.07 8.25 314.62 10.6 307.52 10.6ZM307.57-12.95L307.57-12.95Q311.32-12.95 311.32-17.55L311.32-17.55 311.32-18.75Q311.32-23.35 307.57-23.35L307.57-23.35Q303.82-23.35 303.82-18.75L303.82-18.75 303.82-17.55Q303.82-12.95 307.57-12.95ZM300.92 4.2L300.92 4.2Q300.92 5.8 302.2 6.58 303.47 7.35 306.32 7.35L306.32 7.35 309.52 7.35Q315.27 7.35 315.27 3.95L315.27 3.95Q315.27 2.3 314.15 1.75 313.02 1.2 310.87 1.2L310.87 1.2 302.37 1.2Q301.67 1.75 301.3 2.43 300.92 3.1 300.92 4.2ZM324.47 0L324.47-3.3 327.47-3.3 327.47-21.15 324.47-21.8 324.47-24.65 334.92-26.8 334.92-21.85 335.12-21.85Q335.82-23.95 337.37-25.38 338.92-26.8 341.42-26.8L341.42-26.8Q343.87-26.8 345.27-25.48 346.67-24.15 346.67-21.85L346.67-21.85Q346.67-19.85 345.62-18.7 344.57-17.55 342.67-17.55L342.67-17.55Q340.87-17.55 339.92-18.53 338.97-19.5 338.97-20.85L338.97-20.85Q338.97-21.45 339.22-21.95 339.47-22.45 339.82-22.6L339.82-22.6 339.77-22.85Q339.62-22.9 339.32-22.9L339.32-22.9Q338.52-22.9 337.77-22.45 337.02-22 336.42-21.3 335.82-20.6 335.45-19.75 335.07-18.9 335.07-18.1L335.07-18.1 335.07-3.3 339.07-3.3 339.07 0 324.47 0ZM357.02 0.6L357.02 0.6Q352.77 0.6 350.84-1.38 348.92-3.35 348.92-6.9L348.92-6.9Q348.92-14.65 360.37-14.65L360.37-14.65 363.87-14.65 363.87-17.5Q363.87-20.55 362.72-22.1 361.57-23.65 358.72-23.65L358.72-23.65Q357.67-23.65 356.92-23.5 356.17-23.35 355.62-23.1L355.62-23.1 355.62-22.85Q356.12-22.6 356.59-21.95 357.07-21.3 357.07-20.2L357.07-20.2Q357.07-18.7 356.12-17.68 355.17-16.65 353.27-16.65L353.27-16.65Q351.77-16.65 350.77-17.7 349.77-18.75 349.77-20.35L349.77-20.35Q349.77-21.55 350.47-22.73 351.17-23.9 352.57-24.8 353.97-25.7 356.04-26.25 358.12-26.8 360.82-26.8L360.82-26.8Q366.27-26.8 368.87-24.48 371.47-22.15 371.47-17.9L371.47-17.9 371.47-3.3 374.47-3.3 374.47-0.45Q373.62 0.05 372.27 0.33 370.92 0.6 369.47 0.6L369.47 0.6Q366.72 0.6 365.59-0.68 364.47-1.95 364.47-3.85L364.47-3.85 364.47-3.95 364.17-3.95Q363.82-3.1 363.29-2.3 362.77-1.5 361.94-0.85 361.12-0.2 359.92 0.2 358.72 0.6 357.02 0.6ZM359.87-3.9L359.87-3.9Q361.72-3.9 362.79-4.75 363.87-5.6 363.87-7.7L363.87-7.7 363.87-11.65 361.17-11.65Q358.77-11.65 357.59-10.65 356.42-9.65 356.42-7.8L356.42-7.8 356.42-7Q356.42-5.4 357.37-4.65 358.32-3.9 359.87-3.9ZM377.17 10L377.17 6.7 380.17 6.7 380.17-21.15 377.17-21.8 377.17-24.65 387.77-26.8 387.77-22.3 388.07-22.3Q388.77-24.05 390.52-25.43 392.27-26.8 394.97-26.8L394.97-26.8Q397.37-26.8 399.29-25.83 401.22-24.85 402.57-23.05 403.92-21.25 404.64-18.73 405.37-16.2 405.37-13.1L405.37-13.1Q405.37-10 404.64-7.48 403.92-4.95 402.57-3.15 401.22-1.35 399.29-0.38 397.37 0.6 394.97 0.6L394.97 0.6Q392.12 0.6 390.42-0.73 388.72-2.05 388.02-3.8L388.02-3.8 387.77-3.8 387.77 6.7 391.77 6.7 391.77 10 377.17 10ZM392.42-4L392.42-4Q394.52-4 395.92-5.45 397.32-6.9 397.32-9.7L397.32-9.7 397.32-16.55Q397.32-19.35 395.92-20.8 394.52-22.25 392.42-22.25L392.42-22.25Q390.42-22.25 389.09-21 387.77-19.75 387.77-17.65L387.77-17.65 387.77-8.6Q387.77-6.5 389.09-5.25 390.42-4 392.42-4ZM408.81 0L408.81-3.3 411.81-3.3 411.81-32.35 408.81-33 408.81-35.85 419.41-38 419.41-22.05 419.76-22.05Q420.46-24.05 422.24-25.43 424.01-26.8 426.96-26.8L426.96-26.8Q431.76-26.8 433.74-24.38 435.71-21.95 435.71-17.1L435.71-17.1 435.71-3.3 438.71-3.3 438.71 0 425.36 0 425.36-3.3 428.11-3.3 428.11-16.85Q428.11-19.5 427.19-20.63 426.26-21.75 424.06-21.75L424.06-21.75Q423.21-21.75 422.39-21.53 421.56-21.3 420.89-20.83 420.21-20.35 419.81-19.63 419.41-18.9 419.41-17.85L419.41-17.85 419.41-3.3 422.16-3.3 422.16 0 408.81 0ZM446.26 10.6L446.26 10.6Q443.26 10.6 441.61 9.13 439.96 7.65 439.96 5.6L439.96 5.6Q439.96 3.8 440.99 2.8 442.01 1.8 443.81 1.8L443.81 1.8Q445.56 1.8 446.51 2.9 447.46 4 447.46 5.45L447.46 5.45Q447.46 6.1 447.26 6.68 447.06 7.25 446.81 7.6L446.81 7.6 446.91 7.9Q447.11 7.95 447.46 7.95L447.46 7.95Q448.76 7.95 449.86 6.55 450.96 5.15 451.96 2.55L451.96 2.55 452.46 1.25 442.96-22.9 440.56-22.9 440.56-26.2 453.71-26.2 453.71-22.9 450.91-22.9 456.16-7.75 456.46-7.75 461.76-22.9 458.96-22.9 458.96-26.2 468.16-26.2 468.16-22.9 465.81-22.9 455.31 2.7Q454.76 4.05 454.01 5.48 453.26 6.9 452.21 8.03 451.16 9.15 449.71 9.88 448.26 10.6 446.26 10.6Z" fill="#ffffff" data-fill-palette-color="primary"></path></g></svg></g></svg></g><g transform="matrix(1,0,0,1,0,51.55653975353493)"><svg viewBox="0 0 395.52 23.81143986299565" height="23.81143986299565" width="395.52"><g transform="matrix(1,0,0,1,0,0)"><svg width="395.52" viewBox="2.4 -35.7 759.1 45.7" height="23.81143986299565" data-palette-color="#ffffff"><path d="M28.2-19.1L28.2 0 24.3 0 24.3-17.8Q24.3-19.55 23.5-20.68 22.7-21.8 20.95-21.8L20.95-21.8Q19.3-21.8 18.28-20.58 17.25-19.35 17.25-16.8L17.25-16.8 17.25 0 13.35 0 13.35-18Q13.35-19.65 12.45-20.73 11.55-21.8 10.05-21.8L10.05-21.8Q8.25-21.8 7.28-20.5 6.3-19.2 6.3-17.1L6.3-17.1 6.3 0 2.4 0 2.4-24.8 6.3-24.8 6.3-22.1 6.9-22.1Q7.55-23.85 8.8-24.68 10.05-25.5 11.75-25.5L11.75-25.5Q13.55-25.5 14.73-24.55 15.9-23.6 16.35-22.1L16.35-22.1 16.95-22.1Q18.65-25.5 22.35-25.5L22.35-25.5Q25.15-25.5 26.68-23.73 28.2-21.95 28.2-19.1L28.2-19.1ZM57.8-11.2L37.8-11.2Q37.95-7.5 40.1-5.25 42.25-3 46.1-3L46.1-3Q47.85-3 49.15-3.4 50.45-3.8 51.38-4.5 52.3-5.2 52.88-6.13 53.45-7.05 53.8-8.1L53.8-8.1 57.5-7.1Q56.45-3.65 53.63-1.48 50.8 0.7 46 0.7L46 0.7Q43.35 0.7 41.13-0.23 38.9-1.15 37.3-2.85 35.7-4.55 34.8-6.9 33.9-9.25 33.9-12.1L33.9-12.1 33.9-13.3Q33.9-15.9 34.83-18.15 35.75-20.4 37.4-22.03 39.05-23.65 41.28-24.58 43.5-25.5 46.1-25.5L46.1-25.5Q49.15-25.5 51.38-24.38 53.6-23.25 55.03-21.6 56.45-19.95 57.13-18 57.8-16.05 57.8-14.4L57.8-14.4 57.8-11.2ZM46.1-21.8L46.1-21.8Q44.45-21.8 43.03-21.28 41.6-20.75 40.53-19.8 39.45-18.85 38.78-17.57 38.1-16.3 37.9-14.8L37.9-14.8 53.9-14.8Q53.8-16.4 53.13-17.7 52.45-19 51.38-19.9 50.3-20.8 48.93-21.3 47.55-21.8 46.1-21.8ZM89.4-19.1L89.4 0 85.5 0 85.5-17.8Q85.5-19.55 84.7-20.68 83.9-21.8 82.15-21.8L82.15-21.8Q80.5-21.8 79.48-20.58 78.45-19.35 78.45-16.8L78.45-16.8 78.45 0 74.55 0 74.55-18Q74.55-19.65 73.65-20.73 72.75-21.8 71.25-21.8L71.25-21.8Q69.45-21.8 68.48-20.5 67.5-19.2 67.5-17.1L67.5-17.1 67.5 0 63.6 0 63.6-24.8 67.5-24.8 67.5-22.1 68.1-22.1Q68.75-23.85 70-24.68 71.25-25.5 72.95-25.5L72.95-25.5Q74.75-25.5 75.93-24.55 77.1-23.6 77.55-22.1L77.55-22.1 78.15-22.1Q79.85-25.5 83.55-25.5L83.55-25.5Q86.35-25.5 87.88-23.73 89.4-21.95 89.4-19.1L89.4-19.1ZM119.55-12.7L119.55-12.1Q119.55-9 118.53-6.63 117.5-4.25 115.8-2.63 114.1-1 111.83-0.15 109.55 0.7 107.1 0.7L107.1 0.7Q104.6 0.7 102.35-0.15 100.1-1 98.4-2.63 96.7-4.25 95.68-6.63 94.65-9 94.65-12.1L94.65-12.1 94.65-12.7Q94.65-15.75 95.68-18.13 96.7-20.5 98.43-22.15 100.15-23.8 102.4-24.65 104.65-25.5 107.1-25.5L107.1-25.5Q109.55-25.5 111.8-24.65 114.05-23.8 115.78-22.15 117.5-20.5 118.53-18.13 119.55-15.75 119.55-12.7L119.55-12.7ZM107.1-3L107.1-3Q108.9-3 110.43-3.63 111.95-4.25 113.1-5.45 114.25-6.65 114.9-8.33 115.55-10 115.55-12.1L115.55-12.1 115.55-12.7Q115.55-14.7 114.9-16.38 114.25-18.05 113.1-19.25 111.95-20.45 110.4-21.13 108.85-21.8 107.1-21.8L107.1-21.8Q105.35-21.8 103.8-21.13 102.25-20.45 101.1-19.25 99.95-18.05 99.3-16.38 98.65-14.7 98.65-12.7L98.65-12.7 98.65-12.1Q98.65-10 99.3-8.33 99.95-6.65 101.1-5.45 102.25-4.25 103.78-3.63 105.3-3 107.1-3ZM125.35-21.2L125.35-24.8 134.35-24.8 134.35-21.5 134.95-21.5Q135.9-23.55 137.65-24.53 139.4-25.5 141.65-25.5L141.65-25.5Q145.4-25.5 147.7-23.05 150-20.6 150.15-15.9L150.15-15.9 146.05-15.3Q146.05-18.75 144.4-20.28 142.75-21.8 140.35-21.8L140.35-21.8Q138.8-21.8 137.68-21.2 136.55-20.6 135.8-19.55 135.05-18.5 134.7-17.1 134.35-15.7 134.35-14.1L134.35-14.1 134.35-3.6 140.65-3.6 140.65 0 124.75 0 124.75-3.6 130.45-3.6 130.45-21.2 125.35-21.2ZM165.05-32.2L165.05-32.2Q165.05-33.65 166.07-34.68 167.1-35.7 168.55-35.7L168.55-35.7Q170-35.7 171.03-34.68 172.05-33.65 172.05-32.2L172.05-32.2Q172.05-30.75 171.03-29.73 170-28.7 168.55-28.7L168.55-28.7Q167.1-28.7 166.07-29.73 165.05-30.75 165.05-32.2ZM157.95 0L157.95-3.6 166.65-3.6 166.65-21.2 158.85-21.2 158.85-24.8 170.55-24.8 170.55-3.6 178.65-3.6 178.65 0 157.95 0ZM210.8-11.2L190.8-11.2Q190.95-7.5 193.1-5.25 195.25-3 199.1-3L199.1-3Q200.85-3 202.15-3.4 203.45-3.8 204.38-4.5 205.3-5.2 205.88-6.13 206.45-7.05 206.8-8.1L206.8-8.1 210.5-7.1Q209.45-3.65 206.63-1.48 203.8 0.7 199 0.7L199 0.7Q196.35 0.7 194.13-0.23 191.9-1.15 190.3-2.85 188.7-4.55 187.8-6.9 186.9-9.25 186.9-12.1L186.9-12.1 186.9-13.3Q186.9-15.9 187.82-18.15 188.75-20.4 190.4-22.03 192.05-23.65 194.28-24.58 196.5-25.5 199.1-25.5L199.1-25.5Q202.15-25.5 204.38-24.38 206.6-23.25 208.03-21.6 209.45-19.95 210.13-18 210.8-16.05 210.8-14.4L210.8-14.4 210.8-11.2ZM199.1-21.8L199.1-21.8Q197.45-21.8 196.03-21.28 194.6-20.75 193.53-19.8 192.45-18.85 191.78-17.57 191.1-16.3 190.9-14.8L190.9-14.8 206.9-14.8Q206.8-16.4 206.13-17.7 205.45-19 204.38-19.9 203.3-20.8 201.92-21.3 200.55-21.8 199.1-21.8ZM223.7-18.4L223.7-18.4Q223.7-16.6 225.22-15.65 226.75-14.7 230.8-14.4L230.8-14.4Q235.15-14.05 237.42-12.33 239.7-10.6 239.7-7.3L239.7-7.3 239.7-7Q239.7-5.2 238.97-3.78 238.25-2.35 236.97-1.35 235.7-0.35 233.88 0.18 232.05 0.7 229.9 0.7L229.9 0.7Q227 0.7 224.92-0.08 222.85-0.85 221.47-2.13 220.1-3.4 219.4-5.03 218.7-6.65 218.6-8.3L218.6-8.3 222.3-9.2Q222.55-6.35 224.5-4.63 226.45-2.9 229.7-2.9L229.7-2.9Q232.45-2.9 234.13-3.98 235.8-5.05 235.8-7L235.8-7Q235.8-9.1 234.15-10 232.5-10.9 228.8-11.15L228.8-11.15Q224.5-11.45 222.2-13.15 219.9-14.85 219.9-18.1L219.9-18.1 219.9-18.4Q219.9-20.15 220.65-21.48 221.4-22.8 222.67-23.7 223.95-24.6 225.55-25.05 227.15-25.5 228.9-25.5L228.9-25.5Q231.35-25.5 233.2-24.83 235.05-24.15 236.3-23.08 237.55-22 238.22-20.6 238.9-19.2 239.1-17.8L239.1-17.8 235.4-16.9Q235.15-19.3 233.47-20.65 231.8-22 229.1-22L229.1-22Q228.05-22 227.07-21.78 226.1-21.55 225.35-21.1 224.6-20.65 224.15-19.98 223.7-19.3 223.7-18.4ZM305.1-24.8L301.2 0 294 0 291-23 290.4-23 287.4 0 280.2 0 276.3-24.8 280.3-24.8 283.6-1.8 284.2-1.8 287.1-24.8 294.3-24.8 297.2-1.8 297.8-1.8 301.1-24.8 305.1-24.8ZM333.75-12.7L333.75-12.1Q333.75-9 332.73-6.63 331.7-4.25 330-2.63 328.3-1 326.02-0.15 323.75 0.7 321.3 0.7L321.3 0.7Q318.8 0.7 316.55-0.15 314.3-1 312.6-2.63 310.9-4.25 309.88-6.63 308.85-9 308.85-12.1L308.85-12.1 308.85-12.7Q308.85-15.75 309.88-18.13 310.9-20.5 312.63-22.15 314.35-23.8 316.6-24.65 318.85-25.5 321.3-25.5L321.3-25.5Q323.75-25.5 326-24.65 328.25-23.8 329.98-22.15 331.7-20.5 332.73-18.13 333.75-15.75 333.75-12.7L333.75-12.7ZM321.3-3L321.3-3Q323.1-3 324.63-3.63 326.15-4.25 327.3-5.45 328.45-6.65 329.1-8.33 329.75-10 329.75-12.1L329.75-12.1 329.75-12.7Q329.75-14.7 329.1-16.38 328.45-18.05 327.3-19.25 326.15-20.45 324.6-21.13 323.05-21.8 321.3-21.8L321.3-21.8Q319.55-21.8 318-21.13 316.45-20.45 315.3-19.25 314.15-18.05 313.5-16.38 312.85-14.7 312.85-12.7L312.85-12.7 312.85-12.1Q312.85-10 313.5-8.33 314.15-6.65 315.3-5.45 316.45-4.25 317.98-3.63 319.5-3 321.3-3ZM339.55-21.2L339.55-24.8 348.55-24.8 348.55-21.5 349.15-21.5Q350.1-23.55 351.85-24.53 353.6-25.5 355.85-25.5L355.85-25.5Q359.6-25.5 361.9-23.05 364.2-20.6 364.35-15.9L364.35-15.9 360.25-15.3Q360.25-18.75 358.6-20.28 356.95-21.8 354.55-21.8L354.55-21.8Q353-21.8 351.88-21.2 350.75-20.6 350-19.55 349.25-18.5 348.9-17.1 348.55-15.7 348.55-14.1L348.55-14.1 348.55-3.6 354.85-3.6 354.85 0 338.95 0 338.95-3.6 344.65-3.6 344.65-21.2 339.55-21.2ZM370.7-21.2L370.7-24.8 378.5-24.8 378.5-35 382.4-35 382.4-24.8 392-24.8 392-21.2 382.4-21.2 382.4-5.1Q382.4-3.6 383.75-3.6L383.75-3.6 390.8-3.6 390.8 0 382.35 0Q380.65 0 379.58-1.1 378.5-2.2 378.5-3.9L378.5-3.9 378.5-21.2 370.7-21.2ZM406.05-12.9L406.05 0 402.15 0 402.15-35 406.05-35 406.05-20.3 406.65-20.3Q407.8-22.7 409.88-24.1 411.95-25.5 414.95-25.5L414.95-25.5Q419-25.5 421.53-22.83 424.05-20.15 424.05-14.8L424.05-14.8 424.05 0 420.15 0 420.15-14Q420.15-17.9 418.4-19.85 416.65-21.8 413.65-21.8L413.65-21.8Q410.1-21.8 408.08-19.38 406.05-16.95 406.05-12.9L406.05-12.9ZM482.65-9.7L486.55-8.8Q486.15-6.75 485.18-5 484.2-3.25 482.7-1.98 481.2-0.7 479.2 0 477.2 0.7 474.75 0.7L474.75 0.7Q472.15 0.7 469.83-0.15 467.5-1 465.75-2.63 464-4.25 462.98-6.6 461.95-8.95 461.95-12L461.95-12 461.95-12.6Q461.95-15.6 462.98-18 464-20.4 465.75-22.05 467.5-23.7 469.83-24.6 472.15-25.5 474.75-25.5L474.75-25.5Q477.1-25.5 479.1-24.8 481.1-24.1 482.63-22.83 484.15-21.55 485.13-19.8 486.1-18.05 486.45-16L486.45-16 482.55-15.1Q482.4-16.4 481.83-17.63 481.25-18.85 480.28-19.78 479.3-20.7 477.9-21.25 476.5-21.8 474.65-21.8L474.65-21.8Q472.85-21.8 471.28-21.13 469.7-20.45 468.5-19.23 467.3-18 466.63-16.3 465.95-14.6 465.95-12.6L465.95-12.6 465.95-12Q465.95-9.9 466.63-8.22 467.3-6.55 468.5-5.4 469.7-4.25 471.3-3.63 472.9-3 474.75-3L474.75-3Q476.6-3 477.98-3.58 479.35-4.15 480.33-5.08 481.3-6 481.88-7.2 482.45-8.4 482.65-9.7L482.65-9.7ZM497.85-12.9L497.85 0 493.95 0 493.95-35 497.85-35 497.85-20.3 498.45-20.3Q499.6-22.7 501.68-24.1 503.75-25.5 506.75-25.5L506.75-25.5Q510.8-25.5 513.33-22.83 515.85-20.15 515.85-14.8L515.85-14.8 515.85 0 511.95 0 511.95-14Q511.95-17.9 510.2-19.85 508.45-21.8 505.45-21.8L505.45-21.8Q501.9-21.8 499.88-19.38 497.85-16.95 497.85-12.9L497.85-12.9ZM547.4-11.2L527.4-11.2Q527.55-7.5 529.7-5.25 531.85-3 535.7-3L535.7-3Q537.45-3 538.75-3.4 540.05-3.8 540.98-4.5 541.9-5.2 542.48-6.13 543.05-7.05 543.4-8.1L543.4-8.1 547.1-7.1Q546.05-3.65 543.23-1.48 540.4 0.7 535.6 0.7L535.6 0.7Q532.95 0.7 530.73-0.23 528.5-1.15 526.9-2.85 525.3-4.55 524.4-6.9 523.5-9.25 523.5-12.1L523.5-12.1 523.5-13.3Q523.5-15.9 524.43-18.15 525.35-20.4 527-22.03 528.65-23.65 530.88-24.58 533.1-25.5 535.7-25.5L535.7-25.5Q538.75-25.5 540.98-24.38 543.2-23.25 544.63-21.6 546.05-19.95 546.73-18 547.4-16.05 547.4-14.4L547.4-14.4 547.4-11.2ZM535.7-21.8L535.7-21.8Q534.05-21.8 532.63-21.28 531.2-20.75 530.13-19.8 529.05-18.85 528.38-17.57 527.7-16.3 527.5-14.8L527.5-14.8 543.5-14.8Q543.4-16.4 542.73-17.7 542.05-19 540.98-19.9 539.9-20.8 538.53-21.3 537.15-21.8 535.7-21.8ZM553.75-21.2L553.75-24.8 562.75-24.8 562.75-21.5 563.35-21.5Q564.3-23.55 566.05-24.53 567.8-25.5 570.05-25.5L570.05-25.5Q573.8-25.5 576.1-23.05 578.4-20.6 578.55-15.9L578.55-15.9 574.45-15.3Q574.45-18.75 572.8-20.28 571.15-21.8 568.75-21.8L568.75-21.8Q567.2-21.8 566.08-21.2 564.95-20.6 564.2-19.55 563.45-18.5 563.1-17.1 562.75-15.7 562.75-14.1L562.75-14.1 562.75-3.6 569.05-3.6 569.05 0 553.15 0 553.15-3.6 558.85-3.6 558.85-21.2 553.75-21.2ZM593.45-32.2L593.45-32.2Q593.45-33.65 594.48-34.68 595.5-35.7 596.95-35.7L596.95-35.7Q598.4-35.7 599.43-34.68 600.45-33.65 600.45-32.2L600.45-32.2Q600.45-30.75 599.43-29.73 598.4-28.7 596.95-28.7L596.95-28.7Q595.5-28.7 594.48-29.73 593.45-30.75 593.45-32.2ZM586.35 0L586.35-3.6 595.05-3.6 595.05-21.2 587.25-21.2 587.25-24.8 598.95-24.8 598.95-3.6 607.05-3.6 607.05 0 586.35 0ZM621.5-18.4L621.5-18.4Q621.5-16.6 623.03-15.65 624.55-14.7 628.6-14.4L628.6-14.4Q632.95-14.05 635.23-12.33 637.5-10.6 637.5-7.3L637.5-7.3 637.5-7Q637.5-5.2 636.78-3.78 636.05-2.35 634.78-1.35 633.5-0.35 631.68 0.18 629.85 0.7 627.7 0.7L627.7 0.7Q624.8 0.7 622.73-0.08 620.65-0.85 619.28-2.13 617.9-3.4 617.2-5.03 616.5-6.65 616.4-8.3L616.4-8.3 620.1-9.2Q620.35-6.35 622.3-4.63 624.25-2.9 627.5-2.9L627.5-2.9Q630.25-2.9 631.93-3.98 633.6-5.05 633.6-7L633.6-7Q633.6-9.1 631.95-10 630.3-10.9 626.6-11.15L626.6-11.15Q622.3-11.45 620-13.15 617.7-14.85 617.7-18.1L617.7-18.1 617.7-18.4Q617.7-20.15 618.45-21.48 619.2-22.8 620.48-23.7 621.75-24.6 623.35-25.05 624.95-25.5 626.7-25.5L626.7-25.5Q629.15-25.5 631-24.83 632.85-24.15 634.1-23.08 635.35-22 636.03-20.6 636.7-19.2 636.9-17.8L636.9-17.8 633.2-16.9Q632.95-19.3 631.28-20.65 629.6-22 626.9-22L626.9-22Q625.85-22 624.88-21.78 623.9-21.55 623.15-21.1 622.4-20.65 621.95-19.98 621.5-19.3 621.5-18.4ZM650.85-12.9L650.85 0 646.95 0 646.95-35 650.85-35 650.85-20.3 651.45-20.3Q652.6-22.7 654.68-24.1 656.75-25.5 659.75-25.5L659.75-25.5Q663.8-25.5 666.33-22.83 668.85-20.15 668.85-14.8L668.85-14.8 668.85 0 664.95 0 664.95-14Q664.95-17.9 663.2-19.85 661.45-21.8 658.45-21.8L658.45-21.8Q654.9-21.8 652.88-19.38 650.85-16.95 650.85-12.9L650.85-12.9ZM685.25-32.2L685.25-32.2Q685.25-33.65 686.28-34.68 687.3-35.7 688.75-35.7L688.75-35.7Q690.2-35.7 691.23-34.68 692.25-33.65 692.25-32.2L692.25-32.2Q692.25-30.75 691.23-29.73 690.2-28.7 688.75-28.7L688.75-28.7Q687.3-28.7 686.28-29.73 685.25-30.75 685.25-32.2ZM678.15 0L678.15-3.6 686.85-3.6 686.85-21.2 679.05-21.2 679.05-24.8 690.75-24.8 690.75-3.6 698.85-3.6 698.85 0 678.15 0ZM712.05-12.9L712.05 0 708.15 0 708.15-24.8 712.05-24.8 712.05-20.6 712.65-20.6Q714.95-25.5 720.65-25.5L720.65-25.5Q724.95-25.5 727.5-22.83 730.05-20.15 730.05-14.8L730.05-14.8 730.05 0 726.15 0 726.15-14Q726.15-17.9 724.4-19.85 722.65-21.8 719.65-21.8L719.65-21.8Q716.1-21.8 714.08-19.38 712.05-16.95 712.05-12.9L712.05-12.9ZM757.6 4.9L757.6-3.8 757-3.8Q755.8-1.55 753.73-0.43 751.65 0.7 749.2 0.7L749.2 0.7Q746.7 0.7 744.5-0.15 742.3-1 740.63-2.6 738.95-4.2 737.98-6.58 737-8.95 737-12L737-12 737-12.8Q737-15.8 738-18.18 739-20.55 740.65-22.18 742.3-23.8 744.5-24.65 746.7-25.5 749.1-25.5L749.1-25.5Q751.8-25.5 753.83-24.33 755.85-23.15 757-20.9L757-20.9 757.6-20.9 757.6-24.8 761.5-24.8 761.5 6.1Q761.5 7.8 760.43 8.9 759.35 10 757.65 10L757.65 10 741.5 10 741.5 6.4 756.25 6.4Q757.6 6.4 757.6 4.9L757.6 4.9ZM749.3-3L749.3-3Q751.05-3 752.55-3.65 754.05-4.3 755.18-5.5 756.3-6.7 756.95-8.38 757.6-10.05 757.6-12.1L757.6-12.1 757.6-12.7Q757.6-14.7 756.95-16.38 756.3-18.05 755.18-19.25 754.05-20.45 752.53-21.13 751-21.8 749.3-21.8L749.3-21.8Q747.55-21.8 746.03-21.15 744.5-20.5 743.38-19.3 742.25-18.1 741.63-16.45 741-14.8 741-12.8L741-12.8 741-12Q741-9.9 741.63-8.25 742.25-6.6 743.38-5.43 744.5-4.25 746-3.63 747.5-3 749.3-3Z" opacity="1" transform="matrix(1,0,0,1,0,0)" fill="#ffffff" class="undefined-text-1" data-fill-palette-color="secondary" id="text-1"></path></svg></g></svg></g></svg></g></svg></g><g><svg viewBox="0 0 104.15854783004526 104.15854783004526" height="104.15854783004526" width="104.15854783004526"><g><svg xmlns="http://www.w3.org/2000/svg" xmlns:xlink="http://www.w3.org/1999/xlink" version="1.1" x="0" y="0" viewBox="10.5 10.5 79 79" enable-background="new 0 0 100 100" xml:space="preserve" height="104.15854783004526" width="104.15854783004526" class="icon-icon-0" data-fill-palette-color="accent" id="icon-0"><path d="M50 10.5c-21.8 0-39.5 17.7-39.5 39.5S28.2 89.5 50 89.5 89.5 71.8 89.5 50 71.8 10.5 50 10.5zM76.6 29.5L68 44.2l-16-27.7C62 17.1 70.8 22.1 76.6 29.5zM42.8 62.6L35.5 50l7.3-12.6h14.5l7.3 12.7-7.3 12.5H42.8zM45.4 16.7l8.5 14.7H22C27.2 23.6 35.6 18.1 45.4 16.7zM18.9 37.4h17L20 65c-2.3-4.5-3.5-9.6-3.5-15C16.4 45.5 17.3 41.3 18.9 37.4zM23.5 70.6L32 55.9l16.1 27.6C38.2 83 29.3 78 23.5 70.6zM54.8 83.2l-8.6-14.7H78C72.8 76.3 64.5 81.8 54.8 83.2zM81.1 62.6h-17l16-27.4c2.2 4.5 3.4 9.5 3.4 14.8C83.6 54.5 82.7 58.7 81.1 62.6z" fill="#ffffff" data-fill-palette-color="accent"></path></svg></g></svg></g></svg></g></svg><rect width="395.52" height="80.85328357720562" fill="none" stroke="none" visibility="hidden"></rect></g></svg></g></svg>