<?xml version="1.0" encoding="UTF-8"?><svg id="icon-0" xmlns="http://www.w3.org/2000/svg" viewBox="0 0 1997.13 408.26"><defs><style>.cls-1{fill:#ff8dc7;}</style></defs><g id="tight-bounds"><g><g id="text-0"><path class="cls-1" d="M446.85,184.4v-10.98h11.64V79.3h-11.64v-10.98h64.03c12.2,0,21.32,2.68,27.37,8.05,6.03,5.39,9.05,13.29,9.05,23.71h0c0,10.53-3.27,18.76-9.81,24.68-6.54,5.94-15.91,8.91-28.1,8.91h-23.95v39.75h15.8v10.98h-54.38Zm38.58-104.1v41.41h16.46c5.65,0,10.07-1.36,13.24-4.09,3.15-2.71,4.72-6.83,4.72-12.37h0v-8.48c0-5.54-1.57-9.68-4.72-12.41-3.17-2.71-7.58-4.06-13.24-4.06h-16.46Zm96.45,5.49h0c-4.66,0-8.29-1.27-10.91-3.82-2.59-2.55-3.89-5.99-3.89-10.31h0v-.83c0-4.32,1.3-7.76,3.89-10.31,2.62-2.55,6.25-3.82,10.91-3.82h0c4.66,0,8.28,1.27,10.88,3.82,2.62,2.55,3.92,5.99,3.92,10.31h0v.83c0,4.32-1.31,7.76-3.92,10.31-2.59,2.55-6.22,3.82-10.88,3.82Zm-22.45,98.62v-10.98h9.98v-59.37l-9.98-2.16v-9.48l35.26-7.15v78.16h9.98v10.98h-45.23Zm51.55,0v-10.98h9.15l22.95-30.43-24.11-34.76h-7.48v-10.98h47.23v10.98h-9.98l14.97,21.62h1l15.47-21.62h-9.48v-10.98h33.09v10.98h-9.15l-23.12,30.43,25.11,34.76h7.48v10.98h-47.73v-10.98h9.98l-15.47-21.62h-1l-15.3,21.62h9.48v10.98h-33.09Zm144.65,2h0c-6.87,0-12.94-1.14-18.19-3.43-5.28-2.26-9.71-5.42-13.3-9.48-3.61-4.04-6.36-8.86-8.25-14.47-1.88-5.59-2.83-11.71-2.83-18.36h0c0-6.98,.98-13.3,2.93-18.96,1.93-5.65,4.7-10.42,8.31-14.3,3.59-3.88,7.92-6.87,12.97-8.98,5.03-2.11,10.65-3.16,16.86-3.16h0c6.21,0,11.81,.94,16.8,2.83s9.24,4.57,12.74,8.05c3.48,3.5,6.16,7.75,8.05,12.74s2.83,10.53,2.83,16.63h0v5.65h-54.71v6.65c0,7.43,1.94,13.03,5.82,16.8,3.88,3.77,9.04,5.65,15.47,5.65h0c5.99,0,10.81-1.36,14.47-4.09,3.66-2.71,6.26-6,7.82-9.88h0l9.15,5.49c-1,2.77-2.44,5.6-4.32,8.48s-4.32,5.51-7.32,7.88c-2.99,2.39-6.6,4.37-10.81,5.92-4.21,1.55-9.04,2.33-14.47,2.33Zm-15.8-58.04v2.33h28.6v-2.33c0-7.98-1.27-13.58-3.82-16.8-2.55-3.22-6.04-4.82-10.48-4.82h0c-4.43,0-7.93,1.61-10.48,4.82-2.55,3.22-3.82,8.81-3.82,16.8h0Zm65.52,56.04v-10.98h9.98V76.8l-9.98-2.16v-9.48l35.26-7.15v115.41h9.98v10.98h-45.23Zm93.63,2h0c-6.1,0-10.75-1.14-13.97-3.43-3.22-2.26-5.27-4.78-6.15-7.55h-.67v8.98h-16.3v-25.94h16.3v2.66c0,4.32,1.33,7.59,3.99,9.81,2.66,2.22,6.98,3.33,12.97,3.33h0c5.32,0,9.2-.83,11.64-2.49,2.44-1.66,3.66-4.21,3.66-7.65h0c0-2.77-.89-4.91-2.66-6.42-1.77-1.49-4.71-2.84-8.81-4.06h0l-7.82-2.16c-9.65-2.66-16.77-6.24-21.39-10.74-4.59-4.48-6.88-10.54-6.88-18.19h0c0-8.76,2.88-15.5,8.65-20.22,5.77-4.7,13.36-7.05,22.78-7.05h0c5.88,0,10.37,1.11,13.47,3.33,3.1,2.22,5.1,4.71,5.99,7.48h.67v-8.81h16.3v25.94h-16.3v-2.99c0-4.21-1.31-7.41-3.92-9.58-2.59-2.15-6.83-3.23-12.71-3.23h0c-8.43,0-12.64,3.05-12.64,9.15h0c0,2.88,.85,5.21,2.56,6.98,1.73,1.77,4.87,3.22,9.41,4.32h0l7.15,1.83c4.66,1.22,8.76,2.61,12.31,4.16,3.55,1.55,6.51,3.4,8.88,5.55,2.39,2.17,4.2,4.78,5.42,7.82,1.22,3.06,1.83,6.7,1.83,10.91h0c0,9.2-3.1,16.21-9.31,21.02-6.21,4.83-14.36,7.25-24.45,7.25Zm47.4-2v-10.98h11.64V79.3h-11.64v-10.98h64.03c12.2,0,21.31,2.68,27.34,8.05,6.05,5.39,9.08,13.29,9.08,23.71h0c0,10.53-3.27,18.76-9.81,24.68-6.56,5.94-15.94,8.91-28.14,8.91h-23.91v39.75h15.8v10.98h-54.38Zm38.58-104.1v41.41h16.43c5.68,0,10.09-1.36,13.24-4.09,3.17-2.71,4.76-6.83,4.76-12.37h0v-8.48c0-5.54-1.59-9.68-4.76-12.41-3.15-2.71-7.56-4.06-13.24-4.06h-16.43Zm72.31,104.1v-10.98h9.98V76.8l-9.98-2.16v-9.48l35.26-7.15v53.05h1.16c1.55-4.43,4.3-8.18,8.25-11.24,3.92-3.04,9.16-4.56,15.7-4.56h0c10.64,0,18.16,2.68,22.55,8.05,4.37,5.39,6.55,13.46,6.55,24.21h0v45.9h9.98v10.98h-44.4v-10.98h9.15v-45.07c0-5.88-1.02-10.07-3.06-12.57-2.06-2.48-5.53-3.73-10.41-3.73h0c-1.88,0-3.74,.24-5.55,.73-1.84,.51-3.5,1.29-4.99,2.33-1.51,1.06-2.71,2.39-3.59,3.99-.89,1.62-1.33,3.59-1.33,5.92h0v48.39h9.15v10.98h-44.4Zm152.16-9.98h0c10.2,0,15.3-6.1,15.3-18.29h0v-30.6c0-12.2-5.1-18.29-15.3-18.29h0c-10.2,0-15.3,6.1-15.3,18.29h0v30.6c0,12.2,5.1,18.29,15.3,18.29Zm0,11.97h0c-6.32,0-12.05-1.03-17.2-3.09-5.17-2.04-9.6-5-13.3-8.88-3.73-3.88-6.59-8.65-8.58-14.3-2-5.65-2.99-12.08-2.99-19.29h0c0-7.21,1-13.64,2.99-19.29,2-5.65,4.86-10.42,8.58-14.3,3.7-3.88,8.14-6.85,13.3-8.91,5.14-2.04,10.88-3.06,17.2-3.06h0c6.32,0,12.06,1.02,17.23,3.06,5.14,2.06,9.58,5.03,13.3,8.91,3.7,3.88,6.55,8.65,8.55,14.3,2,5.65,2.99,12.08,2.99,19.29h0c0,7.21-1,13.64-2.99,19.29-2,5.65-4.84,10.42-8.55,14.3-3.73,3.88-8.16,6.84-13.3,8.88-5.17,2.06-10.91,3.09-17.23,3.09Zm82.82-.33h0c-6.65,0-11.56-1.47-14.73-4.42-3.15-2.93-4.72-7.27-4.72-13.04h0v-59.7h-11.64v-11.64h4.49c3.66,0,6.34-.81,8.05-2.43,1.73-1.6,3.37-4,4.92-7.22h0l6.98-14.47h12.47v24.11h19.12v11.64h-19.12v64.19h19.12v9.81c-1.77,.78-4.93,1.5-9.48,2.16s-9.7,1-15.47,1Zm76-11.64h0c10.2,0,15.3-6.1,15.3-18.29h0v-30.6c0-12.2-5.1-18.29-15.3-18.29h0c-10.2,0-15.3,6.1-15.3,18.29h0v30.6c0,12.2,5.1,18.29,15.3,18.29Zm0,11.97h0c-6.32,0-12.06-1.03-17.23-3.09-5.14-2.04-9.58-5-13.3-8.88-3.7-3.88-6.55-8.65-8.55-14.3-2-5.65-2.99-12.08-2.99-19.29h0c0-7.21,1-13.64,2.99-19.29,2-5.65,4.84-10.42,8.55-14.3,3.73-3.88,8.16-6.85,13.3-8.91,5.17-2.04,10.91-3.06,17.23-3.06h0c6.32,0,12.05,1.02,17.2,3.06,5.17,2.06,9.6,5.03,13.3,8.91,3.73,3.88,6.59,8.65,8.58,14.3,2,5.65,2.99,12.08,2.99,19.29h0c0,7.21-1,13.64-2.99,19.29-2,5.65-4.86,10.42-8.58,14.3-3.7,3.88-8.14,6.84-13.3,8.88-5.14,2.06-10.88,3.09-17.2,3.09Zm94.59,33.26h0c-8.2,0-15.02-.44-20.45-1.33-5.43-.89-9.78-2.16-13.04-3.82-3.28-1.66-5.59-3.66-6.92-5.99s-2-4.99-2-7.98h0c0-4.21,1.81-7.62,5.42-10.21,3.59-2.62,8.05-4.37,13.37-5.26h0v-.67c-3.88-.89-7.01-2.75-9.38-5.59-2.39-2.82-3.59-6.44-3.59-10.88h0c0-5.1,1.7-9.07,5.09-11.91,3.37-2.82,7.44-4.78,12.21-5.89h0v-.67c-5.65-2.22-10-5.43-13.04-9.65-3.06-4.21-4.59-9.48-4.59-15.8h0c0-4.66,.89-8.76,2.66-12.31,1.77-3.55,4.27-6.54,7.48-8.98s7.1-4.3,11.64-5.59c4.55-1.26,9.59-1.9,15.13-1.9h0c3.99,0,7.74,.33,11.24,1,3.48,.67,6.83,1.77,10.04,3.33h0c1.22-12.2,6.71-18.29,16.46-18.29h0c3.22,0,5.91,.91,8.08,2.73,2.15,1.84,3.23,4.48,3.23,7.92h0c0,3.22-.96,5.79-2.89,7.72-1.95,1.95-4.7,2.93-8.25,2.93h0c-4.1,0-7.32-1.39-9.65-4.16h-.67v4.99c2.99,2.44,5.35,5.32,7.08,8.65,1.71,3.33,2.56,7.32,2.56,11.97h0c0,4.66-.89,8.76-2.66,12.31-1.77,3.55-4.29,6.54-7.55,8.98-3.28,2.44-7.2,4.29-11.74,5.55-4.55,1.29-9.59,1.93-15.13,1.93h0c-2.33,0-4.55-.11-6.65-.33s-4.16-.55-6.15-1h0c-3.1,2-4.66,4.55-4.66,7.65h0c0,2.33,.89,4.07,2.66,5.22,1.77,1.18,4.6,1.76,8.48,1.76h19.29c5.99,0,11.12,.58,15.4,1.73,4.26,1.18,7.72,2.82,10.38,4.92,2.66,2.11,4.6,4.62,5.82,7.55,1.22,2.95,1.83,6.25,1.83,9.91h0c0,9.2-3.82,16.41-11.47,21.62-7.65,5.21-19.35,7.82-35.09,7.82Zm.17-78.33h0c8.31,0,12.47-5.1,12.47-15.3h0v-3.99c0-10.2-4.16-15.3-12.47-15.3h0c-8.31,0-12.47,5.1-12.47,15.3h0v3.99c0,10.2,4.16,15.3,12.47,15.3Zm-22.12,57.04h0c0,3.55,1.42,6.19,4.26,7.92,2.82,1.71,7.38,2.56,13.7,2.56h10.64c12.75,0,19.12-3.77,19.12-11.31h0c0-3.66-1.24-6.1-3.73-7.32-2.51-1.22-6.14-1.83-10.91-1.83h-28.27c-1.55,1.22-2.74,2.58-3.56,4.09-.84,1.49-1.26,3.45-1.26,5.89Zm78.33-13.97v-10.98h9.98v-59.37l-9.98-2.16v-9.48l34.76-7.15v16.46h.67c1.55-4.66,4.05-8.57,7.48-11.74,3.44-3.15,7.93-4.72,13.47-4.72h0c5.43,0,9.7,1.46,12.8,4.39,3.1,2.95,4.66,6.97,4.66,12.07h0c0,4.43-1.16,7.93-3.49,10.48-2.33,2.55-5.6,3.82-9.81,3.82h0c-3.99,0-7.04-1.09-9.15-3.26-2.11-2.15-3.16-4.72-3.16-7.72h0c0-1.33,.28-2.55,.83-3.66,.55-1.11,1.22-1.83,2-2.16h0l-.17-.83c-.33-.11-.83-.17-1.5-.17h0c-1.77,0-3.49,.5-5.16,1.5-1.66,1-3.16,2.27-4.49,3.82-1.33,1.55-2.41,3.27-3.23,5.16-.84,1.88-1.26,3.71-1.26,5.49h0v49.22h13.3v10.98h-48.56Zm108.26,2h0c-9.42,0-16.28-2.2-20.55-6.59-4.26-4.37-6.39-10.49-6.39-18.36h0c0-17.18,12.69-25.78,38.08-25.78h11.64v-9.48c0-6.76-1.27-11.86-3.82-15.3-2.55-3.44-6.98-5.16-13.3-5.16h0c-2.33,0-4.32,.17-5.99,.5s-3.1,.78-4.32,1.33h0v.83c1.11,.55,2.18,1.55,3.23,2.99,1.06,1.44,1.6,3.38,1.6,5.82h0c0,3.33-1.05,6.12-3.16,8.38-2.11,2.28-5.27,3.43-9.48,3.43h0c-3.33,0-6.1-1.16-8.31-3.49-2.22-2.33-3.33-5.27-3.33-8.81h0c0-2.66,.78-5.3,2.33-7.92,1.55-2.59,3.88-4.89,6.98-6.88s6.95-3.6,11.54-4.82c4.61-1.22,9.91-1.83,15.9-1.83h0c12.08,0,21.01,2.57,26.77,7.72,5.77,5.17,8.65,12.46,8.65,21.89h0v48.56h9.98v9.48c-1.88,1.11-4.32,1.97-7.32,2.59-2.99,.6-6.1,.9-9.31,.9h0c-6.1,0-10.4-1.42-12.9-4.26-2.48-2.82-3.73-6.33-3.73-10.54h0v-.33h-1c-.78,1.88-1.75,3.71-2.93,5.49-1.15,1.77-2.65,3.38-4.49,4.82-1.82,1.44-4.06,2.61-6.72,3.49-2.66,.89-5.88,1.33-9.65,1.33Zm9.48-14.97h0c4.1,0,7.34-.94,9.71-2.83,2.39-1.88,3.59-5.16,3.59-9.81h0v-13.14h-8.98c-5.32,0-9.29,1.11-11.91,3.33-2.59,2.22-3.89,5.38-3.89,9.48h0v2.66c0,3.55,1.05,6.15,3.16,7.82s4.88,2.49,8.31,2.49Zm57.54,46.23v-10.98h9.98V114.05l-9.98-2.16v-9.48l35.26-7.15v14.97h1c1.55-3.88,4.27-7.35,8.15-10.41,3.88-3.04,8.81-4.56,14.8-4.56h0c5.32,0,10.11,1.08,14.37,3.23,4.28,2.17,7.92,5.26,10.91,9.25,2.99,3.99,5.29,8.78,6.88,14.37,1.62,5.61,2.43,11.85,2.43,18.73h0c0,6.87-.81,13.1-2.43,18.69-1.6,5.61-3.89,10.41-6.88,14.4-2.99,3.99-6.63,7.06-10.91,9.21-4.26,2.17-9.05,3.26-14.37,3.26h0c-6.32,0-11.36-1.47-15.13-4.42-3.77-2.93-6.43-6.33-7.98-10.21h-.83v34.92h13.3v10.98h-48.56Zm50.72-46.56h0c4.66,0,8.54-1.61,11.64-4.82s4.66-7.93,4.66-14.14h0v-22.78c0-6.21-1.55-10.92-4.66-14.14-3.1-3.22-6.98-4.82-11.64-4.82h0c-4.43,0-8.13,1.39-11.08,4.16-2.93,2.77-4.39,6.49-4.39,11.14h0v30.1c0,4.66,1.46,8.37,4.39,11.14,2.95,2.77,6.64,4.16,11.08,4.16Zm54.51,13.3v-10.98h9.98V76.8l-9.98-2.16v-9.48l35.26-7.15v53.05h1.16c1.55-4.43,4.3-8.18,8.25-11.24,3.92-3.04,9.16-4.56,15.7-4.56h0c10.64,0,18.16,2.68,22.55,8.05,4.37,5.39,6.55,13.46,6.55,24.21h0v45.9h9.98v10.98h-44.4v-10.98h9.15v-45.07c0-5.88-1.02-10.07-3.06-12.57-2.06-2.48-5.53-3.73-10.41-3.73h0c-1.88,0-3.74,.24-5.55,.73-1.84,.51-3.5,1.29-4.99,2.33-1.51,1.06-2.71,2.39-3.59,3.99-.89,1.62-1.33,3.59-1.33,5.92h0v48.39h9.15v10.98h-44.4Zm124.56,35.26h0c-6.65,0-11.81-1.63-15.47-4.89-3.66-3.28-5.49-7.2-5.49-11.74h0c0-3.99,1.14-7.1,3.43-9.31,2.26-2.22,5.39-3.33,9.38-3.33h0c3.88,0,6.87,1.22,8.98,3.66,2.11,2.44,3.16,5.27,3.16,8.48h0c0,1.44-.22,2.8-.67,4.09-.44,1.26-.94,2.28-1.5,3.06h0l.33,1c.44,.11,1.05,.17,1.83,.17h0c2.88,0,5.54-1.55,7.98-4.66,2.44-3.1,4.77-7.54,6.98-13.3h0l1.66-4.32-31.6-80.32h-7.98v-10.98h43.74v10.98h-9.31l17.46,50.39h1l17.63-50.39h-9.31v-10.98h30.6v10.98h-7.82l-34.92,85.15c-1.22,2.99-2.66,6.08-4.32,9.25-1.66,3.15-3.66,5.98-5.99,8.48-2.33,2.48-5.1,4.53-8.31,6.15-3.22,1.6-7.04,2.39-11.47,2.39Z"/></g><path id="text-1" class="cls-1" d="M499.54,292.41v39.01h-7.96v-36.35c0-2.38-.54-4.34-1.63-5.88-1.09-1.52-2.83-2.29-5.21-2.29h0c-2.25,0-4.06,.83-5.45,2.49-1.4,1.67-2.1,4.25-2.1,7.72h0v34.31h-7.96v-36.76c0-2.25-.61-4.1-1.84-5.58-1.23-1.46-2.86-2.19-4.9-2.19h0c-2.45,0-4.34,.88-5.66,2.65-1.33,1.77-2,4.08-2,6.94h0v34.92h-7.96v-50.65h7.96v5.51h1.23c.88-2.38,2.18-4.14,3.88-5.27,1.7-1.12,3.71-1.67,6.02-1.67h0c2.45,0,4.48,.65,6.09,1.94,1.59,1.29,2.7,2.96,3.31,5h1.23c2.31-4.63,5.99-6.94,11.03-6.94h0c3.81,0,6.76,1.2,8.84,3.61,2.07,2.42,3.1,5.58,3.1,9.46h0Zm60.45,16.13h-40.85c.2,5.04,1.77,9.09,4.7,12.15,2.93,3.06,7.01,4.6,12.25,4.6h0c2.38,0,4.46-.27,6.23-.82,1.77-.54,3.29-1.29,4.55-2.25,1.25-.95,2.27-2.06,3.06-3.33,.78-1.25,1.4-2.59,1.88-4.02h0l7.56,2.04c-1.43,4.7-4.06,8.52-7.9,11.48-3.85,2.97-9.05,4.45-15.58,4.45h0c-3.61,0-6.92-.63-9.95-1.9-3.04-1.25-5.64-3.04-7.82-5.35-2.18-2.31-3.88-5.07-5.11-8.27-1.23-3.2-1.84-6.74-1.84-10.62h0v-2.45c0-3.54,.63-6.84,1.9-9.9,1.25-3.06,3-5.7,5.25-7.92,2.25-2.21,4.89-3.94,7.92-5.21,3.02-1.25,6.3-1.88,9.84-1.88h0c4.15,0,7.75,.76,10.78,2.29,3.02,1.54,5.51,3.43,7.45,5.68,1.93,2.25,3.36,4.7,4.29,7.35,.91,2.65,1.37,5.11,1.37,7.35h0v6.54Zm-23.89-21.65h0c-2.25,0-4.34,.35-6.27,1.06-1.95,.72-3.65,1.73-5.11,3.02-1.47,1.29-2.66,2.81-3.57,4.55-.93,1.73-1.52,3.61-1.8,5.66h32.68c-.14-2.18-.66-4.15-1.57-5.92-.93-1.77-2.12-3.27-3.57-4.49-1.47-1.23-3.14-2.18-5-2.86-1.88-.68-3.81-1.02-5.78-1.02Zm88.43,5.51v39.01h-7.96v-36.35c0-2.38-.54-4.34-1.63-5.88-1.09-1.52-2.83-2.29-5.21-2.29h0c-2.25,0-4.06,.83-5.45,2.49-1.4,1.67-2.1,4.25-2.1,7.72h0v34.31h-7.96v-36.76c0-2.25-.61-4.1-1.84-5.58-1.23-1.46-2.86-2.19-4.9-2.19h0c-2.45,0-4.34,.88-5.66,2.65-1.33,1.77-2,4.08-2,6.94h0v34.92h-7.96v-50.65h7.96v5.51h1.23c.88-2.38,2.18-4.14,3.88-5.27,1.7-1.12,3.71-1.67,6.02-1.67h0c2.45,0,4.48,.65,6.09,1.94,1.59,1.29,2.7,2.96,3.31,5h1.23c2.31-4.63,5.99-6.94,11.03-6.94h0c3.81,0,6.76,1.2,8.84,3.61,2.07,2.42,3.1,5.58,3.1,9.46h0Zm61.57,13.07v1.23c0,4.22-.69,7.94-2.08,11.17-1.4,3.24-3.26,5.96-5.58,8.17-2.31,2.22-5.02,3.91-8.11,5.06-3.1,1.16-6.32,1.74-9.66,1.74h0c-3.4,0-6.64-.58-9.7-1.74-3.06-1.16-5.75-2.85-8.07-5.06-2.31-2.21-4.17-4.93-5.55-8.17-1.4-3.23-2.1-6.95-2.1-11.17h0v-1.23c0-4.15,.7-7.85,2.1-11.09,1.39-3.23,3.26-5.96,5.62-8.21,2.34-2.25,5.04-3.95,8.11-5.11,3.06-1.16,6.26-1.74,9.6-1.74h0c3.34,0,6.54,.58,9.6,1.74,3.06,1.16,5.77,2.86,8.13,5.11,2.34,2.25,4.21,4.98,5.62,8.21,1.39,3.24,2.08,6.94,2.08,11.09h0Zm-25.43,19.81h0c2.45,0,4.72-.43,6.8-1.29,2.07-.84,3.89-2.08,5.45-3.72,1.57-1.63,2.79-3.59,3.68-5.88,.88-2.27,1.33-4.84,1.33-7.7h0v-1.23c0-2.72-.44-5.23-1.33-7.52-.88-2.27-2.11-4.23-3.68-5.86-1.57-1.63-3.4-2.91-5.51-3.84-2.11-.91-4.36-1.37-6.74-1.37h0c-2.38,0-4.63,.46-6.74,1.37-2.11,.93-3.95,2.21-5.51,3.84-1.57,1.63-2.79,3.59-3.68,5.86-.88,2.29-1.33,4.79-1.33,7.52h0v1.23c0,2.86,.44,5.43,1.33,7.7,.88,2.29,2.11,4.25,3.68,5.88,1.57,1.63,3.39,2.87,5.47,3.72,2.07,.86,4.33,1.29,6.78,1.29Zm37.27-37.17v-7.35h18.38v6.74h1.23c1.29-2.79,3.13-4.85,5.51-6.19,2.38-1.32,5.11-1.98,8.17-1.98h0c5.11,0,9.22,1.67,12.36,5,3.13,3.34,4.8,8.2,5,14.6h0l-8.37,1.23c0-4.7-1.12-8.09-3.37-10.17-2.25-2.07-5-3.1-8.27-3.1h0c-2.11,0-3.93,.41-5.45,1.23-1.54,.82-2.82,1.94-3.84,3.37-1.02,1.43-1.77,3.1-2.25,5-.48,1.91-.71,3.95-.71,6.13h0v21.44h12.87v7.35h-32.47v-7.35h11.64v-35.94h-10.42Zm81.08-22.46h0c0-1.97,.69-3.66,2.08-5.06,1.4-1.39,3.09-2.08,5.06-2.08h0c1.97,0,3.66,.69,5.06,2.08,1.39,1.4,2.08,3.09,2.08,5.06h0c0,1.97-.69,3.66-2.08,5.04-1.4,1.4-3.09,2.1-5.06,2.1h0c-1.97,0-3.66-.7-5.06-2.1-1.39-1.39-2.08-3.07-2.08-5.04Zm-14.5,65.76v-7.35h17.77v-35.94h-15.93v-7.35h23.89v43.3h16.54v7.35h-42.27Zm107.93-22.87h-40.85c.2,5.04,1.77,9.09,4.7,12.15,2.93,3.06,7.01,4.6,12.25,4.6h0c2.38,0,4.46-.27,6.23-.82,1.77-.54,3.29-1.29,4.55-2.25,1.25-.95,2.27-2.06,3.06-3.33,.78-1.25,1.4-2.59,1.88-4.02h0l7.56,2.04c-1.43,4.7-4.06,8.52-7.9,11.48-3.85,2.97-9.05,4.45-15.58,4.45h0c-3.61,0-6.92-.63-9.95-1.9-3.04-1.25-5.64-3.04-7.82-5.35-2.18-2.31-3.88-5.07-5.11-8.27-1.23-3.2-1.84-6.74-1.84-10.62h0v-2.45c0-3.54,.63-6.84,1.88-9.9,1.27-3.06,3.02-5.7,5.27-7.92,2.25-2.21,4.89-3.94,7.92-5.21,3.02-1.25,6.3-1.88,9.84-1.88h0c4.15,0,7.75,.76,10.78,2.29,3.02,1.54,5.51,3.43,7.45,5.68,1.93,2.25,3.36,4.7,4.29,7.35,.91,2.65,1.37,5.11,1.37,7.35h0v6.54Zm-23.89-21.65h0c-2.25,0-4.34,.35-6.27,1.06-1.95,.72-3.65,1.73-5.11,3.02-1.47,1.29-2.66,2.81-3.57,4.55-.93,1.73-1.52,3.61-1.8,5.66h32.68c-.14-2.18-.66-4.15-1.57-5.92-.93-1.77-2.12-3.27-3.57-4.49-1.47-1.23-3.15-2.18-5.02-2.86-1.87-.68-3.78-1.02-5.76-1.02Zm50.24,6.94h0c0,2.45,1.03,4.32,3.1,5.62,2.08,1.29,5.88,2.14,11.4,2.55h0c5.92,.48,10.43,1.89,13.52,4.23,3.1,2.36,4.66,5.78,4.66,10.27h0v.61c0,2.45-.5,4.64-1.49,6.58-.98,1.95-2.34,3.6-4.08,4.96-1.73,1.36-3.83,2.4-6.31,3.12-2.49,.71-5.2,1.06-8.13,1.06h0c-3.95,0-7.34-.53-10.17-1.59-2.82-1.05-5.17-2.44-7.05-4.19-1.87-1.73-3.27-3.7-4.23-5.92-.95-2.21-1.5-4.43-1.63-6.68h0l7.56-1.84c.34,3.88,1.84,6.99,4.49,9.33,2.65,2.36,6.19,3.53,10.62,3.53h0c3.74,0,6.76-.74,9.05-2.21,2.27-1.46,3.41-3.51,3.41-6.17h0c0-2.86-1.12-4.9-3.37-6.13-2.25-1.23-5.89-2.01-10.93-2.35h0c-5.85-.41-10.35-1.77-13.48-4.08-3.13-2.31-4.7-5.68-4.7-10.11h0v-.61c0-2.38,.51-4.48,1.53-6.29,1.02-1.8,2.4-3.31,4.13-4.53,1.74-1.23,3.7-2.14,5.88-2.76,2.18-.61,4.46-.92,6.84-.92h0c3.34,0,6.26,.46,8.78,1.37,2.52,.93,4.63,2.12,6.33,3.57,1.7,1.47,3.01,3.16,3.92,5.06,.93,1.91,1.52,3.81,1.8,5.72h0l-7.56,1.84c-.34-3.27-1.65-5.82-3.94-7.66-2.27-1.84-5.25-2.76-8.92-2.76h0c-1.43,0-2.81,.15-4.15,.45-1.32,.31-2.49,.78-3.51,1.39-1.02,.61-1.84,1.38-2.45,2.29-.61,.93-.92,2-.92,3.23Zm166.24-13.07l-7.96,50.65h-14.7l-6.13-46.97h-1.23l-6.13,46.97h-14.7l-7.96-50.65h8.17l6.74,46.97h1.23l5.92-46.97h14.7l5.92,46.97h1.23l6.74-46.97h8.17Zm58.51,24.71v1.23c0,4.22-.69,7.94-2.08,11.17-1.4,3.24-3.26,5.96-5.58,8.17-2.31,2.22-5.02,3.91-8.13,5.06-3.09,1.16-6.3,1.74-9.64,1.74h0c-3.4,0-6.64-.58-9.7-1.74-3.06-1.16-5.75-2.85-8.07-5.06-2.31-2.21-4.17-4.93-5.55-8.17-1.4-3.23-2.1-6.95-2.1-11.17h0v-1.23c0-4.15,.7-7.85,2.1-11.09,1.39-3.23,3.26-5.96,5.62-8.21,2.34-2.25,5.04-3.95,8.11-5.11,3.06-1.16,6.26-1.74,9.6-1.74h0c3.34,0,6.54,.58,9.6,1.74,3.06,1.16,5.77,2.86,8.13,5.11,2.34,2.25,4.21,4.98,5.62,8.21,1.39,3.24,2.08,6.94,2.08,11.09h0Zm-25.43,19.81h0c2.45,0,4.72-.43,6.8-1.29,2.07-.84,3.89-2.08,5.45-3.72,1.57-1.63,2.79-3.59,3.68-5.88,.88-2.27,1.33-4.84,1.33-7.7h0v-1.23c0-2.72-.44-5.23-1.33-7.52-.89-2.27-2.11-4.23-3.68-5.86-1.57-1.63-3.4-2.91-5.51-3.84-2.11-.91-4.36-1.37-6.74-1.37h0c-2.38,0-4.63,.46-6.74,1.37-2.11,.93-3.95,2.21-5.51,3.84-1.57,1.63-2.79,3.59-3.68,5.86-.88,2.29-1.33,4.79-1.33,7.52h0v1.23c0,2.86,.44,5.43,1.33,7.7,.88,2.29,2.11,4.25,3.68,5.88,1.57,1.63,3.39,2.87,5.47,3.72,2.07,.86,4.33,1.29,6.78,1.29Zm37.27-37.17v-7.35h18.38v6.74h1.23c1.29-2.79,3.13-4.85,5.51-6.19,2.38-1.32,5.11-1.98,8.17-1.98h0c5.11,0,9.22,1.67,12.36,5,3.13,3.34,4.8,8.2,5,14.6h0l-8.37,1.23c0-4.7-1.12-8.09-3.37-10.17-2.25-2.07-5-3.1-8.27-3.1h0c-2.11,0-3.93,.41-5.45,1.23-1.54,.82-2.82,1.94-3.84,3.37-1.02,1.43-1.77,3.1-2.25,5-.48,1.91-.71,3.95-.71,6.13h0v21.44h12.87v7.35h-32.47v-7.35h11.64v-35.94h-10.42Zm63.62,0v-7.35h15.93v-20.83h7.96v20.83h19.61v7.35h-19.61v32.88c0,2.04,.92,3.06,2.76,3.06h14.4v7.35h-17.26c-2.31,0-4.2-.75-5.66-2.25-1.47-1.5-2.21-3.4-2.21-5.72h0v-35.33h-15.93Zm72.19,16.95v26.35h-7.96v-71.48h7.96v30.02h1.23c1.57-3.27,3.76-5.85,6.6-7.76,2.82-1.91,6.27-2.86,10.35-2.86h0c5.51,0,9.99,1.82,13.44,5.45,3.43,3.65,5.15,9.12,5.15,16.4h0v30.23h-7.96v-28.59c0-5.31-1.19-9.29-3.57-11.95-2.38-2.65-5.62-3.98-9.7-3.98h0c-4.83,0-8.63,1.65-11.38,4.94-2.76,3.31-4.15,7.72-4.15,13.23h0Zm156.44,6.54l7.96,1.84c-.54,2.79-1.48,5.38-2.8,7.76-1.33,2.38-3.02,4.44-5.06,6.17-2.04,1.74-4.42,3.09-7.15,4.04-2.72,.95-5.75,1.43-9.09,1.43h0c-3.54,0-6.89-.58-10.05-1.74-3.17-1.16-5.95-2.85-8.33-5.06-2.38-2.21-4.27-4.91-5.66-8.11-1.4-3.2-2.1-6.88-2.1-11.03h0v-1.23c0-4.08,.7-7.76,2.1-11.03,1.39-3.27,3.27-6.02,5.66-8.27s5.16-3.98,8.33-5.21c3.16-1.23,6.51-1.84,10.05-1.84h0c3.2,0,6.16,.48,8.88,1.43,2.72,.95,5.13,2.29,7.21,4.02,2.07,1.74,3.77,3.81,5.11,6.19,1.32,2.38,2.22,4.97,2.7,7.76h0l-7.96,1.84c-.2-1.77-.69-3.49-1.47-5.17-.79-1.66-1.84-3.12-3.17-4.39-1.33-1.25-2.95-2.25-4.86-3-1.91-.75-4.12-1.12-6.64-1.12h0c-2.45,0-4.74,.46-6.88,1.37-2.15,.93-4.04,2.22-5.68,3.88-1.63,1.67-2.91,3.67-3.82,5.98-.93,2.31-1.39,4.83-1.39,7.56h0v1.23c0,2.86,.46,5.43,1.39,7.72,.91,2.27,2.19,4.19,3.82,5.76,1.63,1.57,3.54,2.77,5.72,3.61,2.18,.86,4.53,1.29,7.05,1.29h0c2.52,0,4.72-.39,6.6-1.18,1.87-.78,3.47-1.8,4.8-3.06,1.32-1.25,2.38-2.7,3.17-4.33,.78-1.63,1.3-3.34,1.57-5.11h0Zm31.04-6.54v26.35h-7.96v-71.48h7.96v30.02h1.23c1.57-3.27,3.76-5.85,6.6-7.76,2.82-1.91,6.27-2.86,10.35-2.86h0c5.51,0,9.99,1.82,13.44,5.45,3.43,3.65,5.15,9.12,5.15,16.4h0v30.23h-7.96v-28.59c0-5.31-1.19-9.29-3.57-11.95-2.38-2.65-5.62-3.98-9.7-3.98h0c-4.83,0-8.63,1.65-11.38,4.94-2.76,3.31-4.15,7.72-4.15,13.23h0Zm101.19,3.47h-40.85c.2,5.04,1.77,9.09,4.7,12.15,2.93,3.06,7.01,4.6,12.25,4.6h0c2.38,0,4.46-.27,6.23-.82,1.77-.54,3.29-1.29,4.55-2.25,1.25-.95,2.27-2.06,3.06-3.33,.78-1.25,1.4-2.59,1.88-4.02h0l7.56,2.04c-1.43,4.7-4.06,8.52-7.9,11.48-3.85,2.97-9.05,4.45-15.58,4.45h0c-3.61,0-6.92-.63-9.95-1.9-3.04-1.25-5.64-3.04-7.82-5.35-2.18-2.31-3.88-5.07-5.11-8.27-1.23-3.2-1.84-6.74-1.84-10.62h0v-2.45c0-3.54,.63-6.84,1.9-9.9,1.25-3.06,3-5.7,5.25-7.92,2.25-2.21,4.89-3.94,7.92-5.21,3.02-1.25,6.3-1.88,9.84-1.88h0c4.15,0,7.75,.76,10.78,2.29,3.02,1.54,5.51,3.43,7.45,5.68,1.93,2.25,3.36,4.7,4.29,7.35,.91,2.65,1.37,5.11,1.37,7.35h0v6.54Zm-23.89-21.65h0c-2.25,0-4.34,.35-6.27,1.06-1.95,.72-3.65,1.73-5.11,3.02-1.47,1.29-2.66,2.81-3.57,4.55-.93,1.73-1.52,3.61-1.8,5.66h32.68c-.14-2.18-.66-4.15-1.57-5.92-.93-1.77-2.12-3.27-3.57-4.49-1.47-1.23-3.14-2.18-5-2.86-1.88-.68-3.81-1.02-5.78-1.02Zm36.86,1.23v-7.35h18.38v6.74h1.23c1.29-2.79,3.13-4.85,5.51-6.19,2.38-1.32,5.11-1.98,8.17-1.98h0c5.11,0,9.22,1.67,12.36,5,3.13,3.34,4.8,8.2,5,14.6h0l-8.37,1.23c0-4.7-1.12-8.09-3.37-10.17-2.25-2.07-5-3.1-8.27-3.1h0c-2.11,0-3.93,.41-5.45,1.23-1.54,.82-2.82,1.94-3.84,3.37-1.02,1.43-1.77,3.1-2.25,5-.48,1.91-.71,3.95-.71,6.13h0v21.44h12.87v7.35h-32.47v-7.35h11.64v-35.94h-10.42Zm81.08-22.46h0c0-1.97,.7-3.66,2.1-5.06,1.39-1.39,3.07-2.08,5.04-2.08h0c1.97,0,3.66,.69,5.06,2.08,1.39,1.4,2.08,3.09,2.08,5.06h0c0,1.97-.69,3.66-2.08,5.04-1.4,1.4-3.09,2.1-5.06,2.1h0c-1.97,0-3.66-.7-5.04-2.1-1.4-1.39-2.1-3.07-2.1-5.04Zm-14.5,65.76v-7.35h17.77v-35.94h-15.93v-7.35h23.89v43.3h16.54v7.35h-42.27Zm71.79-37.58h0c0,2.45,1.04,4.32,3.12,5.62,2.07,1.29,5.86,2.14,11.38,2.55h0c5.92,.48,10.44,1.89,13.54,4.23,3.09,2.36,4.64,5.78,4.64,10.27h0v.61c0,2.45-.49,4.64-1.47,6.58-.99,1.95-2.36,3.6-4.08,4.96-1.74,1.36-3.85,2.4-6.33,3.12-2.49,.71-5.2,1.06-8.13,1.06h0c-3.95,0-7.33-.53-10.15-1.59-2.83-1.05-5.18-2.44-7.05-4.19-1.88-1.73-3.29-3.7-4.25-5.92-.95-2.21-1.5-4.43-1.63-6.68h0l7.56-1.84c.34,3.88,1.84,6.99,4.49,9.33,2.66,2.36,6.19,3.53,10.62,3.53h0c3.74,0,6.76-.74,9.05-2.21,2.27-1.46,3.41-3.51,3.41-6.17h0c0-2.86-1.12-4.9-3.37-6.13s-5.89-2.01-10.93-2.35h0c-5.85-.41-10.35-1.77-13.48-4.08s-4.7-5.68-4.7-10.11h0v-.61c0-2.38,.51-4.48,1.53-6.29,1.02-1.8,2.4-3.31,4.15-4.53,1.73-1.23,3.68-2.14,5.86-2.76,2.18-.61,4.46-.92,6.84-.92h0c3.34,0,6.26,.46,8.78,1.37,2.52,.93,4.63,2.12,6.33,3.57,1.7,1.47,3.02,3.16,3.94,5.06,.91,1.91,1.5,3.81,1.78,5.72h0l-7.56,1.84c-.34-3.27-1.65-5.82-3.92-7.66-2.29-1.84-5.27-2.76-8.95-2.76h0c-1.43,0-2.8,.15-4.13,.45-1.33,.31-2.51,.78-3.53,1.39s-1.84,1.38-2.45,2.29c-.61,.93-.92,2-.92,3.23Zm59.94,11.23v26.35h-7.96v-71.48h7.96v30.02h1.23c1.57-3.27,3.76-5.85,6.6-7.76,2.82-1.91,6.27-2.86,10.35-2.86h0c5.51,0,9.99,1.82,13.44,5.45,3.43,3.65,5.15,9.12,5.15,16.4h0v30.23h-7.96v-28.59c0-5.31-1.19-9.29-3.57-11.95-2.38-2.65-5.62-3.98-9.7-3.98h0c-4.83,0-8.63,1.65-11.38,4.94-2.76,3.31-4.15,7.72-4.15,13.23h0Zm70.25-39.42h0c0-1.97,.7-3.66,2.1-5.06,1.39-1.39,3.07-2.08,5.04-2.08h0c1.97,0,3.66,.69,5.06,2.08,1.39,1.4,2.08,3.09,2.08,5.06h0c0,1.97-.69,3.66-2.08,5.04-1.4,1.4-3.09,2.1-5.06,2.1h0c-1.97,0-3.66-.7-5.04-2.1-1.4-1.39-2.1-3.07-2.1-5.04Zm-14.5,65.76v-7.35h17.77v-35.94h-15.93v-7.35h23.89v43.3h16.54v7.35h-42.27Zm69.23-26.35v26.35h-7.96v-50.65h7.96v8.58h1.23c3.13-6.67,8.58-10.01,16.34-10.01h0c5.85,0,10.52,1.82,13.99,5.45,3.47,3.65,5.21,9.12,5.21,16.4h0v30.23h-7.96v-28.59c0-5.31-1.19-9.29-3.57-11.95-2.38-2.65-5.62-3.98-9.7-3.98h0c-4.83,0-8.63,1.65-11.38,4.94-2.76,3.31-4.15,7.72-4.15,13.23h0Zm93.02,36.35v-17.77h-1.23c-1.63,3.06-3.86,5.36-6.68,6.88-2.83,1.54-5.92,2.31-9.25,2.31h0c-3.4,0-6.6-.58-9.6-1.74-3-1.16-5.63-2.83-7.9-5-2.29-2.18-4.09-4.89-5.41-8.13-1.33-3.23-2-6.92-2-11.07h0v-1.63c0-4.08,.68-7.75,2.04-10.99,1.36-3.23,3.17-5.95,5.41-8.17,2.25-2.21,4.87-3.89,7.86-5.04,3-1.16,6.13-1.74,9.39-1.74h0c3.68,0,6.9,.8,9.66,2.39,2.75,1.61,4.91,3.94,6.47,7h1.23v-7.96h7.96v63.11c0,2.31-.73,4.22-2.19,5.72-1.47,1.5-3.36,2.25-5.68,2.25h-32.98v-7.35h30.12c1.84,0,2.76-1.02,2.76-3.06h0Zm-16.95-16.13h0c2.38,0,4.6-.44,6.64-1.33,2.04-.88,3.83-2.14,5.37-3.78,1.52-1.63,2.73-3.59,3.61-5.88,.88-2.27,1.33-4.81,1.33-7.6h0v-1.23c0-2.72-.44-5.23-1.33-7.52-.89-2.27-2.09-4.23-3.61-5.86-1.54-1.63-3.34-2.91-5.41-3.84-2.08-.91-4.28-1.37-6.6-1.37h0c-2.38,0-4.61,.44-6.68,1.33-2.08,.88-3.89,2.14-5.41,3.78-1.54,1.63-2.73,3.57-3.57,5.82-.86,2.25-1.29,4.73-1.29,7.45h0v1.63c0,2.86,.43,5.41,1.29,7.66,.84,2.25,2.04,4.17,3.57,5.76,1.52,1.61,3.31,2.83,5.35,3.68,2.04,.86,4.29,1.29,6.74,1.29Z"/></g><path class="cls-1" d="M204.13,0C91.47,0,0,91.47,0,204.13s91.47,204.13,204.13,204.13,204.13-91.47,204.13-204.13S316.79,0,204.13,0Zm137.46,98.19l-44.44,75.97L214.47,31.01c51.68,3.1,97.16,28.94,127.13,67.18Zm-174.67,171.06l-37.73-65.11,37.73-65.11h74.93l37.73,65.63-37.73,64.6h-74.93Zm13.44-237.2l43.93,75.97H59.43c26.87-40.31,70.28-68.73,120.93-75.97ZM43.41,139.01h87.85L49.09,281.65c-11.89-23.26-18.09-49.61-18.09-77.52-.52-23.26,4.13-44.96,12.4-65.11Zm23.77,171.57l43.93-75.97,83.2,142.63c-51.16-2.58-97.16-28.42-127.13-66.67Zm161.75,65.11l-44.44-75.97h164.34c-26.87,40.31-69.77,68.73-119.89,75.97Zm135.91-106.46h-87.85l82.69-141.6c11.37,23.26,17.57,49.09,17.57,76.48,.52,23.26-4.13,44.96-12.4,65.11Z"/></g></svg>