<?xml version="1.0" encoding="UTF-8"?><svg id="icon-0" xmlns="http://www.w3.org/2000/svg" viewBox="0 0 777.82 159"><defs><style>.cls-1{fill:#fff;}</style></defs><g id="tight-bounds"><g><g><g id="text-0"><path class="cls-1" d="M174.04,71.82v-4.27h4.53V30.88h-4.53v-4.27h24.94c4.75,0,8.3,1.04,10.66,3.13,2.35,2.1,3.52,5.18,3.52,9.24h0c0,4.1-1.27,7.31-3.82,9.61-2.55,2.31-6.2,3.47-10.95,3.47h-9.33v15.48h6.15v4.27h-21.18Zm15.03-40.55v16.13h6.41c2.2,0,3.92-.53,5.16-1.59,1.23-1.05,1.84-2.66,1.84-4.82h0v-3.3c0-2.16-.61-3.77-1.84-4.83-1.23-1.05-2.95-1.58-5.16-1.58h-6.41Zm37.57,2.14h0c-1.81,0-3.23-.5-4.25-1.49-1.01-.99-1.52-2.33-1.52-4.02h0v-.32c0-1.68,.51-3.02,1.52-4.02,1.02-.99,2.44-1.49,4.25-1.49h0c1.81,0,3.23,.5,4.24,1.49,1.02,.99,1.53,2.33,1.53,4.02h0v.32c0,1.68-.51,3.02-1.53,4.02-1.01,.99-2.42,1.49-4.24,1.49Zm-8.74,38.41v-4.27h3.89v-23.12l-3.89-.84v-3.69l13.73-2.79v30.44h3.89v4.27h-17.62Zm20.08,0v-4.27h3.56l8.94-11.85-9.39-13.54h-2.91v-4.27h18.39v4.27h-3.89l5.83,8.42h.39l6.02-8.42h-3.69v-4.27h12.89v4.27h-3.56l-9,11.85,9.78,13.54h2.91v4.27h-18.59v-4.27h3.89l-6.02-8.42h-.39l-5.96,8.42h3.69v4.27h-12.89Zm56.34,.78h0c-2.68,0-5.04-.44-7.09-1.33-2.06-.88-3.78-2.11-5.18-3.69-1.41-1.57-2.48-3.45-3.21-5.63-.73-2.18-1.1-4.56-1.1-7.15h0c0-2.72,.38-5.18,1.14-7.38,.75-2.2,1.83-4.06,3.24-5.57,1.4-1.51,3.08-2.68,5.05-3.5,1.96-.82,4.15-1.23,6.57-1.23h0c2.42,0,4.6,.37,6.54,1.1s3.6,1.78,4.96,3.13c1.36,1.36,2.4,3.02,3.13,4.96s1.1,4.1,1.1,6.48h0v2.2h-21.31v2.59c0,2.89,.76,5.07,2.27,6.54,1.51,1.47,3.52,2.2,6.02,2.2h0c2.33,0,4.21-.53,5.63-1.59,1.42-1.05,2.44-2.34,3.04-3.85h0l3.56,2.14c-.39,1.08-.95,2.18-1.68,3.3s-1.68,2.15-2.85,3.07c-1.17,.93-2.57,1.7-4.21,2.31-1.64,.6-3.52,.91-5.63,.91Zm-6.15-22.6v.91h11.14v-.91c0-3.11-.5-5.29-1.49-6.54-.99-1.25-2.35-1.88-4.08-1.88h0c-1.73,0-3.09,.63-4.08,1.88-.99,1.25-1.49,3.43-1.49,6.54h0Zm25.52,21.83v-4.27h3.89V29.91l-3.89-.84v-3.69l13.73-2.79v44.95h3.89v4.27h-17.62Zm36.46,.78h0c-2.37,0-4.19-.44-5.44-1.33-1.25-.88-2.05-1.86-2.4-2.94h-.26v3.5h-6.35v-10.1h6.35v1.04c0,1.68,.52,2.96,1.55,3.82,1.04,.86,2.72,1.3,5.05,1.3h0c2.07,0,3.58-.32,4.53-.97,.95-.65,1.42-1.64,1.42-2.98h0c0-1.08-.35-1.91-1.04-2.5-.69-.58-1.84-1.11-3.43-1.58h0l-3.04-.84c-3.76-1.04-6.53-2.43-8.33-4.18-1.79-1.74-2.68-4.11-2.68-7.09h0c0-3.41,1.12-6.04,3.37-7.88,2.25-1.83,5.2-2.75,8.87-2.75h0c2.29,0,4.04,.43,5.25,1.3,1.21,.86,1.99,1.84,2.33,2.91h.26v-3.43h6.35v10.1h-6.35v-1.17c0-1.64-.51-2.88-1.53-3.73-1.01-.84-2.66-1.26-4.95-1.26h0c-3.28,0-4.92,1.19-4.92,3.56h0c0,1.12,.33,2.03,1,2.72,.67,.69,1.9,1.25,3.67,1.68h0l2.79,.71c1.81,.47,3.41,1.01,4.79,1.62,1.38,.6,2.53,1.33,3.46,2.16,.93,.85,1.64,1.86,2.11,3.04,.47,1.19,.71,2.61,.71,4.25h0c0,3.58-1.21,6.31-3.63,8.19-2.42,1.88-5.59,2.82-9.52,2.82Zm18.46-.78v-4.27h4.53V30.88h-4.53v-4.27h24.94c4.75,0,8.3,1.04,10.65,3.13,2.36,2.1,3.54,5.18,3.54,9.24h0c0,4.1-1.27,7.31-3.82,9.61-2.56,2.31-6.21,3.47-10.96,3.47h-9.31v15.48h6.15v4.27h-21.18Zm15.03-40.55v16.13h6.4c2.21,0,3.93-.53,5.16-1.59,1.23-1.05,1.85-2.66,1.85-4.82h0v-3.3c0-2.16-.62-3.77-1.85-4.83-1.23-1.05-2.94-1.58-5.16-1.58h-6.4Zm28.16,40.55v-4.27h3.89V29.91l-3.89-.84v-3.69l13.73-2.79v20.66h.45c.6-1.73,1.68-3.19,3.21-4.38,1.53-1.18,3.57-1.77,6.11-1.77h0c4.15,0,7.07,1.04,8.78,3.13,1.7,2.1,2.55,5.24,2.55,9.43h0v17.88h3.89v4.27h-17.29v-4.27h3.56v-17.55c0-2.29-.4-3.92-1.19-4.9-.8-.97-2.15-1.45-4.05-1.45h0c-.73,0-1.46,.09-2.16,.28-.72,.2-1.36,.5-1.94,.91-.59,.41-1.05,.93-1.4,1.55-.35,.63-.52,1.4-.52,2.31h0v18.85h3.56v4.27h-17.29Zm59.26-3.89h0c3.97,0,5.96-2.37,5.96-7.12h0v-11.92c0-4.75-1.99-7.12-5.96-7.12h0c-3.97,0-5.96,2.37-5.96,7.12h0v11.92c0,4.75,1.99,7.12,5.96,7.12Zm0,4.66h0c-2.46,0-4.69-.4-6.7-1.2-2.01-.79-3.74-1.95-5.18-3.46-1.45-1.51-2.56-3.37-3.34-5.57-.78-2.2-1.17-4.71-1.17-7.51h0c0-2.81,.39-5.31,1.17-7.51,.78-2.2,1.89-4.06,3.34-5.57,1.44-1.51,3.17-2.67,5.18-3.47,2-.79,4.24-1.19,6.7-1.19h0c2.46,0,4.7,.4,6.71,1.19,2,.8,3.73,1.96,5.18,3.47,1.44,1.51,2.55,3.37,3.33,5.57,.78,2.2,1.17,4.71,1.17,7.51h0c0,2.81-.39,5.31-1.17,7.51-.78,2.2-1.89,4.06-3.33,5.57-1.45,1.51-3.18,2.66-5.18,3.46-2.01,.8-4.25,1.2-6.71,1.2Zm32.25-.13h0c-2.59,0-4.5-.57-5.74-1.72-1.23-1.14-1.84-2.83-1.84-5.08h0v-23.25h-4.53v-4.53h1.75c1.42,0,2.47-.32,3.13-.95,.67-.62,1.31-1.56,1.92-2.81h0l2.72-5.63h4.86v9.39h7.45v4.53h-7.45v25h7.45v3.82c-.69,.3-1.92,.58-3.69,.84s-3.78,.39-6.02,.39Zm29.6-4.53h0c3.97,0,5.96-2.37,5.96-7.12h0v-11.92c0-4.75-1.99-7.12-5.96-7.12h0c-3.97,0-5.96,2.37-5.96,7.12h0v11.92c0,4.75,1.99,7.12,5.96,7.12Zm0,4.66h0c-2.46,0-4.7-.4-6.71-1.2-2-.79-3.73-1.95-5.18-3.46-1.44-1.51-2.55-3.37-3.33-5.57-.78-2.2-1.17-4.71-1.17-7.51h0c0-2.81,.39-5.31,1.17-7.51,.78-2.2,1.89-4.06,3.33-5.57,1.45-1.51,3.18-2.67,5.18-3.47,2.01-.79,4.25-1.19,6.71-1.19h0c2.46,0,4.69,.4,6.7,1.19,2.01,.8,3.74,1.96,5.18,3.47,1.45,1.51,2.56,3.37,3.34,5.57,.78,2.2,1.17,4.71,1.17,7.51h0c0,2.81-.39,5.31-1.17,7.51-.78,2.2-1.89,4.06-3.34,5.57-1.44,1.51-3.17,2.66-5.18,3.46-2,.8-4.24,1.2-6.7,1.2Zm36.84,12.95h0c-3.2,0-5.85-.17-7.97-.52-2.12-.35-3.81-.84-5.08-1.49-1.28-.65-2.18-1.42-2.69-2.33s-.78-1.94-.78-3.11h0c0-1.64,.7-2.97,2.11-3.98,1.4-1.02,3.13-1.7,5.21-2.05h0v-.26c-1.51-.35-2.73-1.07-3.65-2.18-.93-1.1-1.4-2.51-1.4-4.24h0c0-1.99,.66-3.53,1.98-4.64,1.31-1.1,2.9-1.86,4.75-2.29h0v-.26c-2.2-.86-3.89-2.12-5.08-3.76-1.19-1.64-1.79-3.69-1.79-6.15h0c0-1.81,.35-3.41,1.04-4.79,.69-1.38,1.66-2.55,2.91-3.5s2.76-1.68,4.53-2.18c1.77-.49,3.73-.74,5.89-.74h0c1.55,0,3.01,.13,4.38,.39,1.36,.26,2.66,.69,3.91,1.3h0c.47-4.75,2.61-7.12,6.41-7.12h0c1.25,0,2.3,.35,3.15,1.06,.84,.72,1.26,1.74,1.26,3.08h0c0,1.25-.38,2.25-1.13,3.01-.76,.76-1.83,1.14-3.21,1.14h0c-1.6,0-2.85-.54-3.76-1.62h-.26v1.94c1.17,.95,2.09,2.07,2.76,3.37,.66,1.3,1,2.85,1,4.66h0c0,1.81-.35,3.41-1.04,4.79-.69,1.38-1.67,2.55-2.94,3.5-1.28,.95-2.8,1.67-4.57,2.16-1.77,.5-3.73,.75-5.89,.75h0c-.91,0-1.77-.04-2.59-.13s-1.62-.22-2.4-.39h0c-1.21,.78-1.81,1.77-1.81,2.98h0c0,.91,.35,1.58,1.04,2.03,.69,.46,1.79,.69,3.3,.69h7.51c2.33,0,4.33,.22,6,.67,1.66,.46,3.01,1.1,4.04,1.92,1.04,.82,1.79,1.8,2.27,2.94,.47,1.15,.71,2.44,.71,3.86h0c0,3.58-1.49,6.39-4.47,8.42-2.98,2.03-7.53,3.04-13.67,3.04Zm.06-30.51h0c3.24,0,4.86-1.99,4.86-5.96h0v-1.55c0-3.97-1.62-5.96-4.86-5.96h0c-3.24,0-4.86,1.99-4.86,5.96h0v1.55c0,3.97,1.62,5.96,4.86,5.96Zm-8.61,22.22h0c0,1.38,.55,2.41,1.66,3.08,1.1,.66,2.88,1,5.34,1h4.15c4.97,0,7.45-1.47,7.45-4.4h0c0-1.42-.48-2.37-1.45-2.85-.98-.47-2.39-.71-4.25-.71h-11.01c-.6,.47-1.07,1.01-1.39,1.59-.33,.58-.49,1.34-.49,2.29Zm30.51-5.44v-4.27h3.89v-23.12l-3.89-.84v-3.69l13.54-2.79v6.41h.26c.6-1.81,1.58-3.34,2.91-4.57,1.34-1.23,3.09-1.84,5.25-1.84h0c2.12,0,3.78,.57,4.99,1.71,1.21,1.15,1.81,2.72,1.81,4.7h0c0,1.73-.45,3.09-1.36,4.08-.91,.99-2.18,1.49-3.82,1.49h0c-1.55,0-2.74-.42-3.56-1.27-.82-.84-1.23-1.84-1.23-3.01h0c0-.52,.11-.99,.32-1.42,.22-.43,.47-.71,.78-.84h0l-.06-.32c-.13-.04-.32-.06-.58-.06h0c-.69,0-1.36,.19-2.01,.58-.65,.39-1.23,.89-1.75,1.49-.52,.6-.94,1.27-1.26,2.01-.33,.73-.49,1.45-.49,2.14h0v19.17h5.18v4.27h-18.91Zm42.16,.78h0c-3.67,0-6.34-.85-8.01-2.56-1.66-1.7-2.49-4.08-2.49-7.15h0c0-6.69,4.94-10.04,14.83-10.04h4.53v-3.69c0-2.63-.5-4.62-1.49-5.96-.99-1.34-2.72-2.01-5.18-2.01h0c-.91,0-1.68,.06-2.33,.19s-1.21,.3-1.68,.52h0v.32c.43,.22,.85,.6,1.26,1.17,.41,.56,.62,1.32,.62,2.27h0c0,1.3-.41,2.38-1.23,3.26-.82,.89-2.05,1.33-3.69,1.33h0c-1.3,0-2.37-.45-3.24-1.36-.86-.91-1.3-2.05-1.3-3.43h0c0-1.04,.3-2.06,.91-3.08,.6-1.01,1.51-1.9,2.72-2.68s2.71-1.4,4.49-1.88c1.8-.47,3.86-.71,6.19-.71h0c4.71,0,8.18,1,10.43,3.01,2.25,2.01,3.37,4.85,3.37,8.52h0v18.91h3.89v3.69c-.73,.43-1.68,.77-2.85,1.01-1.17,.23-2.37,.35-3.63,.35h0c-2.37,0-4.05-.55-5.03-1.66-.97-1.1-1.45-2.47-1.45-4.11h0v-.13h-.39c-.3,.73-.68,1.45-1.14,2.14-.45,.69-1.03,1.32-1.75,1.88-.71,.56-1.58,1.01-2.62,1.36-1.04,.35-2.29,.52-3.76,.52Zm3.69-5.83h0c1.6,0,2.86-.37,3.78-1.1,.93-.73,1.4-2.01,1.4-3.82h0v-5.12h-3.5c-2.07,0-3.62,.43-4.64,1.3-1.01,.86-1.52,2.09-1.52,3.69h0v1.04c0,1.38,.41,2.4,1.23,3.04s1.9,.97,3.24,.97Zm22.41,18.01v-4.27h3.89V44.42l-3.89-.84v-3.69l13.73-2.79v5.83h.39c.6-1.51,1.66-2.86,3.17-4.05,1.51-1.18,3.43-1.77,5.76-1.77h0c2.07,0,3.94,.42,5.6,1.26,1.67,.85,3.08,2.05,4.25,3.6,1.17,1.55,2.06,3.42,2.68,5.6,.63,2.18,.95,4.62,.95,7.29h0c0,2.68-.32,5.1-.95,7.28-.62,2.18-1.52,4.05-2.68,5.61-1.17,1.55-2.58,2.75-4.25,3.59-1.66,.85-3.52,1.27-5.6,1.27h0c-2.46,0-4.43-.57-5.89-1.72-1.47-1.14-2.5-2.47-3.11-3.98h-.32v13.6h5.18v4.27h-18.91Zm19.75-18.14h0c1.81,0,3.32-.63,4.53-1.88s1.81-3.09,1.81-5.51h0v-8.87c0-2.42-.6-4.25-1.81-5.51-1.21-1.25-2.72-1.88-4.53-1.88h0c-1.73,0-3.17,.54-4.31,1.62-1.14,1.08-1.71,2.53-1.71,4.34h0v11.72c0,1.81,.57,3.26,1.71,4.34,1.15,1.08,2.59,1.62,4.31,1.62Zm21.23,5.18v-4.27h3.89V29.91l-3.89-.84v-3.69l13.73-2.79v20.66h.45c.6-1.73,1.68-3.19,3.21-4.38,1.53-1.18,3.57-1.77,6.11-1.77h0c4.15,0,7.07,1.04,8.78,3.13,1.7,2.1,2.55,5.24,2.55,9.43h0v17.88h3.89v4.27h-17.29v-4.27h3.56v-17.55c0-2.29-.4-3.92-1.19-4.9-.8-.97-2.15-1.45-4.05-1.45h0c-.73,0-1.46,.09-2.16,.28-.72,.2-1.36,.5-1.94,.91-.59,.41-1.05,.93-1.4,1.55-.35,.63-.52,1.4-.52,2.31h0v18.85h3.56v4.27h-17.29Zm48.51,13.73h0c-2.59,0-4.6-.63-6.02-1.9-1.42-1.28-2.14-2.8-2.14-4.57h0c0-1.55,.44-2.76,1.33-3.63,.88-.86,2.1-1.3,3.65-1.3h0c1.51,0,2.68,.47,3.5,1.42,.82,.95,1.23,2.05,1.23,3.3h0c0,.56-.09,1.09-.26,1.59-.17,.49-.37,.89-.58,1.19h0l.13,.39c.17,.04,.41,.06,.71,.06h0c1.12,0,2.16-.6,3.11-1.81,.95-1.21,1.86-2.94,2.72-5.18h0l.65-1.68-12.31-31.28h-3.11v-4.27h17.03v4.27h-3.63l6.8,19.62h.39l6.87-19.62h-3.63v-4.27h11.92v4.27h-3.04l-13.6,33.16c-.47,1.17-1.04,2.37-1.68,3.6-.65,1.23-1.42,2.33-2.33,3.3-.91,.97-1.99,1.77-3.24,2.4-1.25,.62-2.74,.93-4.47,.93Z"/></g><path id="text-1" class="cls-1" d="M194.56,113.88v15.19h-3.1v-14.16c0-.93-.21-1.69-.64-2.29-.42-.59-1.1-.89-2.03-.89h0c-.87,0-1.58,.32-2.12,.97-.55,.65-.82,1.65-.82,3.01h0v13.36h-3.1v-14.32c0-.87-.24-1.6-.72-2.17-.48-.57-1.11-.85-1.91-.85h0c-.95,0-1.69,.34-2.2,1.03-.52,.69-.78,1.59-.78,2.7h0v13.6h-3.1v-19.73h3.1v2.15h.48c.34-.93,.85-1.61,1.51-2.05,.66-.43,1.44-.65,2.35-.65h0c.95,0,1.74,.25,2.37,.76,.62,.5,1.05,1.15,1.29,1.95h.48c.9-1.8,2.33-2.7,4.3-2.7h0c1.48,0,2.63,.47,3.44,1.41,.81,.94,1.21,2.17,1.21,3.68h0Zm23.54,6.28h-15.91c.08,1.96,.69,3.54,1.83,4.73,1.14,1.19,2.73,1.79,4.77,1.79h0c.93,0,1.74-.11,2.43-.32,.69-.21,1.28-.5,1.77-.87,.49-.37,.89-.8,1.19-1.3,.3-.49,.55-1.01,.73-1.57h0l2.94,.8c-.56,1.83-1.58,3.32-3.08,4.47-1.5,1.16-3.52,1.73-6.07,1.73h0c-1.41,0-2.7-.25-3.87-.74-1.18-.49-2.2-1.18-3.05-2.08-.85-.9-1.51-1.98-1.99-3.22-.48-1.25-.72-2.62-.72-4.14h0v-.95c0-1.38,.25-2.66,.74-3.86,.49-1.19,1.17-2.22,2.04-3.09,.87-.86,1.9-1.54,3.09-2.03,1.18-.49,2.46-.73,3.83-.73h0c1.62,0,3.02,.3,4.2,.89,1.18,.6,2.14,1.34,2.9,2.21,.75,.87,1.31,1.83,1.67,2.86,.36,1.03,.53,1.99,.53,2.86h0v2.55Zm-9.31-8.43h0c-.87,0-1.69,.14-2.44,.41-.76,.28-1.42,.67-1.99,1.18-.57,.5-1.04,1.09-1.39,1.77-.36,.67-.59,1.41-.7,2.2h12.73c-.05-.85-.26-1.62-.61-2.31-.36-.69-.82-1.27-1.39-1.75-.57-.48-1.22-.85-1.95-1.11-.73-.27-1.48-.4-2.25-.4Zm34.44,2.15v15.19h-3.1v-14.16c0-.93-.21-1.69-.64-2.29-.42-.59-1.1-.89-2.03-.89h0c-.87,0-1.58,.32-2.12,.97-.55,.65-.82,1.65-.82,3.01h0v13.36h-3.1v-14.32c0-.87-.24-1.6-.72-2.17-.48-.57-1.11-.85-1.91-.85h0c-.95,0-1.69,.34-2.2,1.03-.52,.69-.78,1.59-.78,2.7h0v13.6h-3.1v-19.73h3.1v2.15h.48c.34-.93,.85-1.61,1.51-2.05,.66-.43,1.44-.65,2.35-.65h0c.95,0,1.74,.25,2.37,.76,.62,.5,1.05,1.15,1.29,1.95h.48c.9-1.8,2.33-2.7,4.3-2.7h0c1.48,0,2.63,.47,3.44,1.41,.81,.94,1.21,2.17,1.21,3.68h0Zm23.98,5.09v.48c0,1.64-.27,3.09-.81,4.35-.55,1.26-1.27,2.32-2.17,3.18-.9,.86-1.95,1.52-3.16,1.97-1.21,.45-2.46,.68-3.76,.68h0c-1.33,0-2.59-.23-3.78-.68-1.19-.45-2.24-1.11-3.14-1.97-.9-.86-1.62-1.92-2.16-3.18-.55-1.26-.82-2.71-.82-4.35h0v-.48c0-1.62,.27-3.06,.82-4.32,.54-1.26,1.27-2.32,2.19-3.2,.91-.87,1.96-1.54,3.16-1.99,1.19-.45,2.44-.68,3.74-.68h0c1.3,0,2.55,.23,3.74,.68,1.19,.45,2.25,1.11,3.17,1.99,.91,.87,1.64,1.94,2.19,3.2,.54,1.26,.81,2.7,.81,4.32h0Zm-9.9,7.72h0c.95,0,1.84-.17,2.65-.5,.81-.33,1.51-.81,2.12-1.45,.61-.64,1.09-1.4,1.43-2.29,.34-.89,.52-1.89,.52-3h0v-.48c0-1.06-.17-2.04-.52-2.93-.34-.89-.82-1.65-1.43-2.28-.61-.64-1.33-1.13-2.15-1.5-.82-.36-1.7-.53-2.62-.53h0c-.93,0-1.8,.18-2.62,.53-.82,.36-1.54,.86-2.15,1.5-.61,.64-1.09,1.4-1.43,2.28-.34,.89-.52,1.87-.52,2.93h0v.48c0,1.11,.17,2.11,.52,3,.34,.89,.82,1.65,1.43,2.29,.61,.64,1.32,1.12,2.13,1.45,.81,.33,1.69,.5,2.64,.5Zm14.52-14.48v-2.86h7.16v2.62h.48c.5-1.09,1.22-1.89,2.15-2.41,.93-.51,1.99-.77,3.18-.77h0c1.99,0,3.59,.65,4.81,1.95,1.22,1.3,1.87,3.19,1.95,5.69h0l-3.26,.48c0-1.83-.44-3.15-1.31-3.96-.87-.81-1.95-1.21-3.22-1.21h0c-.82,0-1.53,.16-2.12,.48-.6,.32-1.1,.76-1.5,1.31-.4,.56-.69,1.21-.87,1.95-.19,.74-.28,1.54-.28,2.39h0v8.35h5.01v2.86h-12.65v-2.86h4.53v-14h-4.06Zm31.58-8.75h0c0-.77,.27-1.43,.81-1.97,.55-.54,1.2-.81,1.97-.81h0c.77,0,1.43,.27,1.97,.81,.54,.55,.81,1.2,.81,1.97h0c0,.77-.27,1.42-.81,1.96-.55,.55-1.2,.82-1.97,.82h0c-.77,0-1.43-.27-1.97-.82-.54-.54-.81-1.2-.81-1.96Zm-5.65,25.61v-2.86h6.92v-14h-6.2v-2.86h9.31v16.86h6.44v2.86h-16.46Zm42.04-8.91h-15.91c.08,1.96,.69,3.54,1.83,4.73,1.14,1.19,2.73,1.79,4.77,1.79h0c.93,0,1.74-.11,2.43-.32,.69-.21,1.28-.5,1.77-.87,.49-.37,.89-.8,1.19-1.3,.3-.49,.55-1.01,.73-1.57h0l2.94,.8c-.56,1.83-1.58,3.32-3.08,4.47-1.5,1.16-3.52,1.73-6.07,1.73h0c-1.41,0-2.7-.25-3.87-.74-1.18-.49-2.2-1.18-3.05-2.08-.85-.9-1.51-1.98-1.99-3.22-.48-1.25-.72-2.62-.72-4.14h0v-.95c0-1.38,.24-2.66,.73-3.86,.49-1.19,1.18-2.22,2.05-3.09,.87-.86,1.9-1.54,3.09-2.03,1.18-.49,2.46-.73,3.83-.73h0c1.62,0,3.02,.3,4.2,.89,1.18,.6,2.14,1.34,2.9,2.21,.75,.87,1.31,1.83,1.67,2.86,.36,1.03,.53,1.99,.53,2.86h0v2.55Zm-9.31-8.43h0c-.87,0-1.69,.14-2.44,.41-.76,.28-1.42,.67-1.99,1.18-.57,.5-1.04,1.09-1.39,1.77-.36,.67-.59,1.41-.7,2.2h12.73c-.05-.85-.26-1.62-.61-2.31-.36-.69-.82-1.27-1.39-1.75-.57-.48-1.22-.85-1.96-1.11-.73-.27-1.47-.4-2.24-.4Zm19.57,2.7h0c0,.95,.4,1.68,1.21,2.19,.81,.5,2.29,.84,4.44,.99h0c2.31,.19,4.06,.73,5.27,1.65,1.21,.92,1.81,2.25,1.81,4h0v.24c0,.95-.19,1.81-.58,2.56-.38,.76-.91,1.4-1.59,1.93-.67,.53-1.49,.94-2.46,1.22-.97,.28-2.03,.41-3.17,.41h0c-1.54,0-2.86-.21-3.96-.62-1.1-.41-2.01-.95-2.74-1.63-.73-.67-1.28-1.44-1.65-2.31-.37-.86-.58-1.73-.64-2.6h0l2.94-.72c.13,1.51,.72,2.72,1.75,3.63,1.03,.92,2.41,1.38,4.14,1.38h0c1.46,0,2.63-.29,3.52-.86,.89-.57,1.33-1.37,1.33-2.4h0c0-1.11-.44-1.91-1.31-2.39-.87-.48-2.29-.78-4.26-.91h0c-2.28-.16-4.03-.69-5.25-1.59-1.22-.9-1.83-2.21-1.83-3.94h0v-.24c0-.93,.2-1.74,.6-2.45,.4-.7,.93-1.29,1.61-1.77,.68-.48,1.44-.84,2.29-1.07,.85-.24,1.74-.36,2.66-.36h0c1.3,0,2.44,.18,3.42,.53,.98,.36,1.8,.82,2.47,1.39,.66,.57,1.17,1.23,1.53,1.97,.36,.74,.59,1.48,.7,2.23h0l-2.94,.72c-.13-1.27-.64-2.27-1.54-2.98-.89-.72-2.04-1.07-3.48-1.07h0c-.56,0-1.09,.06-1.61,.17-.51,.12-.97,.3-1.37,.54-.4,.24-.72,.54-.95,.89-.24,.36-.36,.78-.36,1.26Zm64.75-5.09l-3.1,19.73h-5.73l-2.39-18.29h-.48l-2.39,18.29h-5.73l-3.1-19.73h3.18l2.62,18.29h.48l2.31-18.29h5.73l2.31,18.29h.48l2.62-18.29h3.18Zm22.79,9.62v.48c0,1.64-.27,3.09-.81,4.35-.55,1.26-1.27,2.32-2.17,3.18-.9,.86-1.96,1.52-3.17,1.97-1.2,.45-2.46,.68-3.75,.68h0c-1.33,0-2.59-.23-3.78-.68-1.19-.45-2.24-1.11-3.14-1.97-.9-.86-1.62-1.92-2.16-3.18-.55-1.26-.82-2.71-.82-4.35h0v-.48c0-1.62,.27-3.06,.82-4.32,.54-1.26,1.27-2.32,2.19-3.2,.91-.87,1.96-1.54,3.16-1.99,1.19-.45,2.44-.68,3.74-.68h0c1.3,0,2.55,.23,3.74,.68,1.19,.45,2.25,1.11,3.17,1.99,.91,.87,1.64,1.94,2.19,3.2,.54,1.26,.81,2.7,.81,4.32h0Zm-9.9,7.72h0c.95,0,1.84-.17,2.65-.5,.81-.33,1.51-.81,2.12-1.45,.61-.64,1.09-1.4,1.43-2.29,.34-.89,.52-1.89,.52-3h0v-.48c0-1.06-.17-2.04-.52-2.93-.34-.89-.82-1.65-1.43-2.28-.61-.64-1.33-1.13-2.15-1.5-.82-.36-1.7-.53-2.62-.53h0c-.93,0-1.8,.18-2.62,.53-.82,.36-1.54,.86-2.15,1.5-.61,.64-1.09,1.4-1.43,2.28-.34,.89-.52,1.87-.52,2.93h0v.48c0,1.11,.17,2.11,.52,3,.34,.89,.82,1.65,1.43,2.29,.61,.64,1.32,1.12,2.13,1.45,.81,.33,1.69,.5,2.64,.5Zm14.52-14.48v-2.86h7.16v2.62h.48c.5-1.09,1.22-1.89,2.15-2.41,.93-.51,1.99-.77,3.18-.77h0c1.99,0,3.59,.65,4.81,1.95,1.22,1.3,1.87,3.19,1.95,5.69h0l-3.26,.48c0-1.83-.44-3.15-1.31-3.96-.87-.81-1.95-1.21-3.22-1.21h0c-.82,0-1.53,.16-2.12,.48-.6,.32-1.1,.76-1.5,1.31-.4,.56-.69,1.21-.87,1.95-.19,.74-.28,1.54-.28,2.39h0v8.35h5.01v2.86h-12.65v-2.86h4.53v-14h-4.06Zm24.78,0v-2.86h6.2v-8.11h3.1v8.11h7.64v2.86h-7.64v12.81c0,.8,.36,1.19,1.07,1.19h5.61v2.86h-6.72c-.9,0-1.64-.29-2.2-.87-.57-.58-.86-1.33-.86-2.23h0v-13.76h-6.2Zm28.12,6.6v10.26h-3.1v-27.84h3.1v11.69h.48c.61-1.27,1.47-2.28,2.57-3.02,1.1-.74,2.44-1.11,4.03-1.11h0c2.15,0,3.89,.71,5.23,2.12,1.34,1.42,2,3.55,2,6.39h0v11.77h-3.1v-11.14c0-2.07-.46-3.62-1.39-4.65-.93-1.03-2.19-1.55-3.78-1.55h0c-1.88,0-3.36,.64-4.43,1.92-1.08,1.29-1.61,3.01-1.61,5.15h0Zm60.93,2.55l3.1,.72c-.21,1.09-.58,2.09-1.09,3.02-.52,.93-1.18,1.73-1.97,2.4-.8,.68-1.72,1.2-2.78,1.57-1.06,.37-2.24,.56-3.54,.56h0c-1.38,0-2.68-.23-3.91-.68-1.24-.45-2.32-1.11-3.25-1.97-.93-.86-1.66-1.91-2.2-3.16-.55-1.25-.82-2.68-.82-4.3h0v-.48c0-1.59,.27-3.02,.82-4.3,.54-1.27,1.28-2.35,2.2-3.22s2.01-1.55,3.25-2.03c1.23-.48,2.53-.72,3.91-.72h0c1.25,0,2.4,.19,3.46,.56,1.06,.37,2,.89,2.81,1.57,.81,.68,1.47,1.48,1.99,2.41,.51,.93,.86,1.94,1.05,3.02h0l-3.1,.72c-.08-.69-.27-1.36-.57-2.01-.31-.65-.72-1.22-1.23-1.71-.52-.49-1.15-.88-1.89-1.17-.74-.29-1.6-.44-2.59-.44h0c-.95,0-1.85,.18-2.68,.53-.84,.36-1.57,.86-2.21,1.51-.64,.65-1.13,1.43-1.49,2.33-.36,.9-.54,1.88-.54,2.94h0v.48c0,1.11,.18,2.12,.54,3.01,.36,.89,.85,1.63,1.49,2.24,.64,.61,1.38,1.08,2.23,1.41,.85,.33,1.76,.5,2.74,.5h0c.98,0,1.84-.15,2.57-.46,.73-.3,1.35-.7,1.87-1.19,.51-.49,.93-1.05,1.23-1.69,.3-.64,.51-1.3,.61-1.99h0Zm12.09-2.55v10.26h-3.1v-27.84h3.1v11.69h.48c.61-1.27,1.47-2.28,2.57-3.02,1.1-.74,2.44-1.11,4.03-1.11h0c2.15,0,3.89,.71,5.23,2.12,1.34,1.42,2,3.55,2,6.39h0v11.77h-3.1v-11.14c0-2.07-.46-3.62-1.39-4.65-.93-1.03-2.19-1.55-3.78-1.55h0c-1.88,0-3.36,.64-4.43,1.92-1.08,1.29-1.61,3.01-1.61,5.15h0Zm39.41,1.35h-15.91c.08,1.96,.69,3.54,1.83,4.73,1.14,1.19,2.73,1.79,4.77,1.79h0c.93,0,1.74-.11,2.43-.32,.69-.21,1.28-.5,1.77-.87,.49-.37,.89-.8,1.19-1.3,.3-.49,.55-1.01,.73-1.57h0l2.94,.8c-.56,1.83-1.58,3.32-3.08,4.47-1.5,1.16-3.52,1.73-6.07,1.73h0c-1.41,0-2.7-.25-3.87-.74-1.18-.49-2.2-1.18-3.05-2.08-.85-.9-1.51-1.98-1.99-3.22-.48-1.25-.72-2.62-.72-4.14h0v-.95c0-1.38,.25-2.66,.74-3.86,.49-1.19,1.17-2.22,2.04-3.09,.87-.86,1.9-1.54,3.09-2.03,1.18-.49,2.46-.73,3.83-.73h0c1.62,0,3.02,.3,4.2,.89,1.18,.6,2.14,1.34,2.9,2.21,.75,.87,1.31,1.83,1.67,2.86,.36,1.03,.53,1.99,.53,2.86h0v2.55Zm-9.31-8.43h0c-.87,0-1.69,.14-2.44,.41-.76,.28-1.42,.67-1.99,1.18-.57,.5-1.04,1.09-1.39,1.77-.36,.67-.59,1.41-.7,2.2h12.73c-.05-.85-.26-1.62-.61-2.31-.36-.69-.82-1.27-1.39-1.75-.57-.48-1.22-.85-1.95-1.11-.73-.27-1.48-.4-2.25-.4Zm14.36,.48v-2.86h7.16v2.62h.48c.5-1.09,1.22-1.89,2.15-2.41,.93-.51,1.99-.77,3.18-.77h0c1.99,0,3.59,.65,4.81,1.95,1.22,1.3,1.87,3.19,1.95,5.69h0l-3.26,.48c0-1.83-.44-3.15-1.31-3.96-.87-.81-1.95-1.21-3.22-1.21h0c-.82,0-1.53,.16-2.12,.48-.6,.32-1.1,.76-1.5,1.31-.4,.56-.69,1.21-.87,1.95-.19,.74-.28,1.54-.28,2.39h0v8.35h5.01v2.86h-12.65v-2.86h4.53v-14h-4.06Zm31.58-8.75h0c0-.77,.27-1.43,.82-1.97,.54-.54,1.2-.81,1.96-.81h0c.77,0,1.43,.27,1.97,.81,.54,.55,.81,1.2,.81,1.97h0c0,.77-.27,1.42-.81,1.96-.55,.55-1.2,.82-1.97,.82h0c-.77,0-1.42-.27-1.96-.82-.55-.54-.82-1.2-.82-1.96Zm-5.65,25.61v-2.86h6.92v-14h-6.2v-2.86h9.31v16.86h6.44v2.86h-16.46Zm27.96-14.64h0c0,.95,.41,1.68,1.22,2.19,.81,.5,2.28,.84,4.43,.99h0c2.31,.19,4.06,.73,5.27,1.65,1.2,.92,1.81,2.25,1.81,4h0v.24c0,.95-.19,1.81-.57,2.56-.39,.76-.92,1.4-1.59,1.93-.68,.53-1.5,.94-2.47,1.22-.97,.28-2.03,.41-3.17,.41h0c-1.54,0-2.86-.21-3.95-.62-1.1-.41-2.02-.95-2.74-1.63-.73-.67-1.28-1.44-1.65-2.31-.37-.86-.58-1.73-.64-2.6h0l2.94-.72c.13,1.51,.72,2.72,1.75,3.63,1.03,.92,2.41,1.38,4.14,1.38h0c1.46,0,2.63-.29,3.52-.86,.89-.57,1.33-1.37,1.33-2.4h0c0-1.11-.44-1.91-1.31-2.39s-2.29-.78-4.26-.91h0c-2.28-.16-4.03-.69-5.25-1.59s-1.83-2.21-1.83-3.94h0v-.24c0-.93,.2-1.74,.6-2.45,.4-.7,.94-1.29,1.61-1.77,.67-.48,1.43-.84,2.28-1.07,.85-.24,1.74-.36,2.66-.36h0c1.3,0,2.44,.18,3.42,.53,.98,.36,1.8,.82,2.47,1.39,.66,.57,1.17,1.23,1.54,1.97,.36,.74,.59,1.48,.69,2.23h0l-2.94,.72c-.13-1.27-.64-2.27-1.53-2.98-.89-.72-2.05-1.07-3.48-1.07h0c-.56,0-1.09,.06-1.61,.17-.52,.12-.98,.3-1.38,.54s-.72,.54-.95,.89c-.24,.36-.36,.78-.36,1.26Zm23.34,4.37v10.26h-3.1v-27.84h3.1v11.69h.48c.61-1.27,1.47-2.28,2.57-3.02,1.1-.74,2.44-1.11,4.03-1.11h0c2.15,0,3.89,.71,5.23,2.12,1.34,1.42,2,3.55,2,6.39h0v11.77h-3.1v-11.14c0-2.07-.46-3.62-1.39-4.65-.93-1.03-2.19-1.55-3.78-1.55h0c-1.88,0-3.36,.64-4.43,1.92-1.08,1.29-1.61,3.01-1.61,5.15h0Zm27.36-15.35h0c0-.77,.27-1.43,.82-1.97,.54-.54,1.2-.81,1.96-.81h0c.77,0,1.43,.27,1.97,.81,.54,.55,.81,1.2,.81,1.97h0c0,.77-.27,1.42-.81,1.96-.55,.55-1.2,.82-1.97,.82h0c-.77,0-1.42-.27-1.96-.82-.55-.54-.82-1.2-.82-1.96Zm-5.65,25.61v-2.86h6.92v-14h-6.2v-2.86h9.31v16.86h6.44v2.86h-16.46Zm26.96-10.26v10.26h-3.1v-19.73h3.1v3.34h.48c1.22-2.6,3.34-3.9,6.36-3.9h0c2.28,0,4.1,.71,5.45,2.12,1.35,1.42,2.03,3.55,2.03,6.39h0v11.77h-3.1v-11.14c0-2.07-.46-3.62-1.39-4.65-.93-1.03-2.19-1.55-3.78-1.55h0c-1.88,0-3.36,.64-4.43,1.92-1.08,1.29-1.61,3.01-1.61,5.15h0Zm36.23,14.16v-6.92h-.48c-.64,1.19-1.5,2.09-2.6,2.68-1.1,.6-2.3,.9-3.6,.9h0c-1.33,0-2.57-.23-3.74-.68-1.17-.45-2.19-1.1-3.08-1.95-.89-.85-1.59-1.9-2.11-3.17-.52-1.26-.78-2.69-.78-4.31h0v-.64c0-1.59,.27-3.02,.8-4.28,.53-1.26,1.23-2.32,2.11-3.18,.87-.86,1.9-1.51,3.06-1.96,1.17-.45,2.39-.68,3.66-.68h0c1.43,0,2.69,.31,3.76,.93,1.07,.63,1.91,1.54,2.52,2.73h.48v-3.1h3.1v24.58c0,.9-.28,1.64-.85,2.23-.57,.58-1.31,.87-2.21,.87h-12.85v-2.86h11.73c.72,0,1.07-.4,1.07-1.19h0Zm-6.6-6.28h0c.93,0,1.79-.17,2.59-.52,.8-.34,1.49-.84,2.09-1.47,.59-.64,1.06-1.4,1.41-2.29,.34-.89,.52-1.87,.52-2.96h0v-.48c0-1.06-.17-2.04-.52-2.93-.34-.89-.81-1.65-1.41-2.28-.6-.64-1.3-1.13-2.11-1.5-.81-.36-1.67-.53-2.57-.53h0c-.93,0-1.79,.17-2.6,.52-.81,.34-1.51,.84-2.11,1.47-.6,.64-1.06,1.39-1.39,2.27-.33,.87-.5,1.84-.5,2.9h0v.64c0,1.11,.17,2.11,.5,2.98,.33,.87,.79,1.62,1.39,2.24,.59,.63,1.29,1.1,2.08,1.43,.8,.33,1.67,.5,2.62,.5Z"/></g><path class="cls-1" d="M79.5,0C35.63,0,0,35.63,0,79.5s35.63,79.5,79.5,79.5,79.5-35.63,79.5-79.5S123.38,0,79.5,0Zm53.54,38.24l-17.31,29.59L83.53,12.08c20.13,1.21,37.84,11.27,49.51,26.17ZM65.01,104.86l-14.69-25.36,14.69-25.36h29.18l14.69,25.56-14.69,25.16h-29.18Zm5.23-92.38l17.11,29.59H23.15c10.47-15.7,27.37-26.77,47.1-29.59ZM16.91,54.14H51.12L19.12,109.69c-4.63-9.06-7.04-19.32-7.04-30.19-.2-9.06,1.61-17.51,4.83-25.36Zm9.26,66.82l17.11-29.59,32.4,55.55c-19.93-1.01-37.84-11.07-49.51-25.96Zm63,25.36l-17.31-29.59h64c-10.47,15.7-27.17,26.77-46.7,29.59Zm52.93-41.46h-34.22l32.2-55.15c4.43,9.06,6.84,19.12,6.84,29.79,.2,9.06-1.61,17.51-4.83,25.36Z"/></g></g></svg>